<?xml version="1.0" standalone="no"?>
<!DOCTYPE svg PUBLIC "-//W3C//DTD SVG 1.1//EN" "http://www.w3.org/Graphics/SVG/1.1/DTD/svg11.dtd" >
<svg>
<metadata>
Created by FontForge 20090914 at Mon Jan 13 10:47:50 2020
 By www-data
(C)2001 Nate Piekos.  www.blambot.com
</metadata>
<defs>
<font id="AnimeAce" horiz-adv-x="414" >
  <font-face 
    font-family="Anime Ace"
    font-weight="400"
    font-stretch="normal"
    units-per-em="1024"
    panose-1="2 11 6 3 5 3 2 2 2 4"
    ascent="819"
    descent="-205"
    x-height="822.998"
    cap-height="855.998"
    bbox="16.001 -147.001 988 969.004"
    underline-thickness="0"
    underline-position="0"
    unicode-range="U+0020-U+2122"
  />
<missing-glyph horiz-adv-x="512" 
d="M64 0v969h384v-969h-384zM128 64h256v841h-256v-841z" />
    <glyph glyph-name=".notdef" horiz-adv-x="512" 
d="M64 0v969h384v-969h-384zM128 64h256v841h-256v-841z" />
    <glyph glyph-name="space" unicode=" " 
 />
    <glyph glyph-name="exclam" unicode="!" horiz-adv-x="396" 
d="M158 318c-34.667 0 -52.001 10 -52.001 30c0 10.667 2.66699 25 8 43c7.33301 28 11 42.333 11 43l46 239c21.333 104 42.333 179.667 63 227c9.33301 20.667 36.333 31 81 31c16.667 0 34.334 -2 53.001 -6c27.333 -6 41 -14.333 41 -25
c0 -3.33301 -21.333 -51 -64 -143c-48.667 -104 -74 -158 -76 -162c-32 -74 -52.333 -139.333 -61 -196l-6 -56c-5.33301 -16.667 -20 -25 -44 -25zM101.999 41c-27.333 0 -41 9.33203 -41 27.999c0 28 2.33301 69.667 7 125c2 16 25.333 24 70 24
c34.667 0 52 -5.33301 52 -16c0 -9.33301 -4.16699 -32.166 -12.5 -68.499s-14.5 -59.833 -18.5 -70.5c-5.33301 -14.667 -24.333 -22 -57 -22z" />
    <glyph glyph-name="quotedbl" unicode="&#x22;" horiz-adv-x="470" 
d="M390 896c0 -110 -4.66699 -205.331 -14 -285.998c-3.33301 -30.667 -22 -46 -56 -46c-30 0 -45 21 -45 63c0 6.66699 0.333008 16.5 1 29.5s1 22.167 1 27.5c0 21.333 -1.16699 53.666 -3.5 96.999s-3.5 75.666 -3.5 96.999c0 17.333 7.33301 31 22 41s31 15 49 15
c32.667 0 49 -12.667 49 -38zM199 877.002c0 -109.333 -5 -204.666 -15 -285.999c-3.33301 -30 -22 -45 -56 -45c-29.333 0 -44 17.333 -44 52c0 7.33301 0.5 18.333 1.5 33s1.5 25.667 1.5 33c0 21.333 -1.5 53.666 -4.5 96.999s-4.5 76 -4.5 98c0 17.333 7.33301 31 22 41
s31 15 49 15c33.333 0 50 -12.667 50 -38z" />
    <glyph glyph-name="numbersign" unicode="#" horiz-adv-x="775" 
d="M707 307c0 -12 -6.33301 -19.6641 -19 -22.9971c-16.667 -4.66699 -48.667 -10.334 -96 -17.001c5.33301 -40 12 -100.667 20 -182v-5c0.666992 -14 -9.66602 -26 -30.999 -36c-17.333 -8 -34.333 -12 -51 -12c-22 0 -34 7.16699 -36 21.5s-5 79.833 -9 196.5
c-52.667 -8.66699 -120 -17.334 -202 -26.001c0.666992 -33.333 3 -73 7 -119c3.33301 -37.333 5 -55 5 -53c0 -15.333 -9.66699 -27.333 -29 -36c-15.333 -7.33301 -32 -11 -50 -11c-28 0 -42 13.667 -42 41v17c0.666992 7.33301 1 13 1 17c0 31.333 1.33301 75.333 4 132
c-26 -2.66699 -41.333 -4 -46 -4c-21.333 0 -39 9 -53 27c-13.333 16 -20 35.333 -20 58c0 15.333 8.66699 24 26 26l97 3c1.33301 41.333 3.33301 83.666 6 126.999c-20.667 -4 -37 -6 -49 -6c-23.333 0 -42.5 8.33301 -57.5 25s-22.5 37 -22.5 61
c0 15.333 8.66699 24 26 26l109 3c2 48.667 6.33301 121.667 13 219c3.33301 39.333 31.333 59 84 59c24.667 0 36.334 -8 35.001 -24v-5c-2 -28.667 -7 -69.334 -15 -122.001c-8.66699 -56 -14 -96.667 -16 -122c69.333 4 128.666 12 177.999 24l-1 96
c0 51.333 0 74.333 0 69c2 28.667 10 48.334 24 59.001c20 14.667 46 22 78 22c24 0 36 -9.33301 36 -28c0 -23.333 -2.66699 -54.333 -8 -93c-6 -46.667 -9.33301 -77.667 -10 -93c28 8.66699 44.333 13 49 13c16 0 30.667 -10 44 -30s20 -38.667 20 -56
c0 -14.667 -6 -23.667 -18 -27c-16 -4 -49.333 -9.66699 -100 -17c-0.666992 -22 -1 -49.667 -1 -83v-37c35.333 10 55 15 59 15c15.333 0 29.666 -11.667 42.999 -35c12 -20 18 -38.333 18 -55zM480 353.003c-2.66699 84 -4 127.667 -4 131c-41.333 -6 -104 -14 -188 -24
c-3.33301 -39.333 -5 -84 -5 -134c74 4.66699 139.667 13.667 197 27z" />
    <glyph glyph-name="dollar" unicode="$" horiz-adv-x="813" 
d="M758 405c0 -14 -2 -27.334 -6 -40.001c-19.333 -69.333 -53.333 -131.5 -102 -186.5s-106.667 -98.833 -174 -131.5c0.666992 -4.66699 2.33398 -14.334 5.00098 -29.001c2 -12 3 -21.667 3 -29c0 -17.333 -9.5 -32.166 -28.5 -44.499s-37.5 -18.5 -55.5 -18.5
c-19.333 0 -31 9 -35 27c-1.33301 5.33301 -2 22.333 -2 51c-44 -10.667 -81.667 -16 -113 -16c-37.333 0 -67 7.66699 -89 23c-16.667 12 -34.334 29.333 -53.001 52c-21.333 27.333 -32 48.666 -32 63.999c0 12 4.66699 27.333 14 46c10 21.333 20.333 32 31 32
c6.66699 0 14.667 -5.66699 24 -17c48.667 -56.667 114.667 -84 198 -82h16c-4 87.333 -7 182 -9 284c-48 2.66699 -120.667 7.33398 -218 14.001c-40.667 3.33301 -63.667 20 -69 50c-2.66699 14 -4 27.333 -4 40c0 8 0.666992 14.333 2 19c22.667 62 60.667 120 114 174
c51.333 52.667 108 92.667 170 120v25c-0.666992 10.667 -1 19 -1 25c0 31.333 8.83301 56.166 26.5 74.499s42.5 27.5 74.5 27.5c24.667 0 37 -12 37 -36c0 -9.33301 -1 -22.333 -3 -39l-4 -39c38 5.33301 65.667 8 83 8c19.333 0 33.333 -2 42 -6
c11.333 -6 17 -18.667 17 -38c0 -15.333 2.83301 -36.166 8.5 -62.499s8.5 -43.166 8.5 -50.499c0 -13.333 -9.5 -27.5 -28.5 -42.5s-35.5 -22.5 -49.5 -22.5c-11.333 0 -21 10.667 -29 32l-14 48l-24 1l-23 -1c-4 -64.667 -6.66699 -128 -8 -190
c70.667 -6 115.667 -10.333 135 -13c52 -6 96.333 -14 133 -24c21.333 -6 32 -32.333 32 -79zM346 527.999v76.001c-0.666992 33.333 -1 58.666 -1 75.999c-24.667 -12 -53.667 -32.333 -87 -61c-39.333 -34 -59 -60.667 -59 -80c0 -8 10.667 -12 32 -12h58
c25.333 0.666992 44.333 1 57 1zM458 378c0 -70 3.33301 -152.333 10 -247c36.667 14.667 70 38.667 100 72c32.667 36.667 49 73 49 109c0 20 -10 33.667 -30 41c-17.333 6.66699 -60.333 15 -129 25z" />
    <glyph glyph-name="percent" unicode="%" horiz-adv-x="891" 
d="M479 61c-68 0 -114.996 20.333 -140.996 61c-12.667 -24.667 -32.667 -61 -60 -109c-11.333 -16.667 -29 -25 -53 -25c-15.333 0 -30.333 3.33301 -45 10c-17.333 8.66699 -26 19.667 -26 33c0 9.33301 74 127.333 222 354c-53.333 -19.333 -105.333 -29 -156 -29
c-44.667 0 -81.334 8.66699 -110.001 26c-34 21.333 -51 53 -51 95c0 62.667 36.333 140.667 109 234c26 34 56.667 61.667 92 83c40 24.667 79.333 37 118 37c40.667 0 79.667 -16.667 117 -50c32.667 -29.333 57.667 -64.666 75 -105.999
c21.333 32 54.666 79.333 99.999 142c16.667 22 38.334 33 65.001 33c16 0 32.667 -4.33301 50 -13c20 -10.667 30 -23.334 30 -38.001c0 -6.66699 -2.33301 -13.667 -7 -21l-65 -78l-130 -167c9.33301 1.33301 18.666 2 27.999 2c39.333 0 74.333 -13 105 -39
c68.667 -59.333 103 -118 103 -176c0 -12.667 -2 -25.667 -6 -39c-20.667 -68 -69.334 -122.667 -146.001 -164c-68.667 -37.333 -141.334 -56 -218.001 -56zM477.004 572c0 36 -9.66699 68.333 -29 97c-22 31.333 -50 47 -84 47c-37.333 0 -77.333 -18.333 -120 -55
c-44.667 -38 -67 -75 -67 -111c0 -32 18 -56.667 54 -74c28.667 -14.667 60.667 -22 96 -22c40.667 0 75 9.33301 103 28c31.333 21.333 47 51.333 47 90zM625.004 422c-32 0 -62.333 -11.002 -91 -33.002c-66 -49.333 -99 -92.666 -99 -129.999
c0 -29.333 17.333 -53.666 52 -72.999c30 -16.667 61 -25 93 -25c38.667 0 73.667 8.66699 105 26c38.667 20.667 58 48.667 58 84c0 36.667 -10.333 70 -31 100c-23.333 34 -52.333 51 -87 51z" />
    <glyph glyph-name="ampersand" unicode="&#x26;" horiz-adv-x="765" 
d="M633 -91c-24.667 0 -36.998 9.33398 -36.998 28.001c0 10.667 3.66699 44 11 100c-74.667 -34.667 -148.667 -52 -222 -52c-79.333 0 -151.333 17.333 -216 52c-78.667 42 -118 99.333 -118 172c0 56.667 24 108.667 72 156c33.333 32 82.666 65 147.999 99
c-55.333 32.667 -83 80 -83 142c0 56 34 121.333 102 196c41.333 45.333 92.333 68 153 68c64.667 0 119 -24.667 163 -74c31.333 -34.667 47 -62 47 -82c0 -10.667 -2.33301 -21 -7 -31c-6 -13.333 -13.667 -20 -23 -20c-8 0 -28.167 12.333 -60.5 37s-65.5 37 -99.5 37
c-38.667 0 -73.334 -14.667 -104.001 -44s-46 -63.333 -46 -102c0 -34 9.66699 -56 29 -66c9.33301 -5.33301 30.333 -9.33301 63 -12c30 -2 51.667 -8 65 -18c21.333 -18 32 -38.333 32 -61c0 -27.333 -17.333 -43.666 -52 -48.999l-114 -12
c-49.333 -8.66699 -86 -28.667 -110 -60c-21.333 -28.667 -32 -57.334 -32 -86.001c0 -45.333 22.333 -82.333 67 -111c39.333 -24.667 83 -37 131 -37c61.333 0 135.333 23.667 222 71l1 26c0.666992 32.667 -3.33301 74 -12 124c-10.667 62 -17 102.667 -19 122v7
c0 13.333 11 24.666 33 33.999c17.333 8 33.666 12 48.999 12c20.667 0 32.334 -6.66699 35.001 -20c9.33301 -44 14 -153 14 -327l-1 -154c0 -18.667 -8.5 -34.167 -25.5 -46.5s-35.5 -18.5 -55.5 -18.5z" />
    <glyph glyph-name="quotesingle" unicode="'" horiz-adv-x="323" 
d="M140 596c-14 0 -26.834 3.83398 -38.501 11.501s-17.5 18.167 -17.5 31.5c0 10.667 5 26 15 46c13.333 26.667 29 64 47 112c21.333 54.667 36.5 92 45.5 112s25.833 30 50.5 30c15.333 0 30.833 -4.33301 46.5 -13s23.5 -20.334 23.5 -35.001
c0 -9.33301 -19.667 -53 -59 -131c-35.333 -70 -59.666 -116 -72.999 -138c-10.667 -17.333 -24 -26 -40 -26z" />
    <glyph glyph-name="parenleft" unicode="(" horiz-adv-x="542" 
d="M138 344c0 -112 85.3359 -197.997 256.003 -257.997c23.333 -4.66699 55.666 -14.667 96.999 -30c17.333 -10 26 -25.667 26 -47c0 -14.667 -4 -30.334 -12 -47.001c-10 -20 -21.667 -30 -35 -30c0.666992 0 -4 2.33301 -14 7l-189 89
c-68.667 37.333 -122.334 80.666 -161.001 129.999c-51.333 66 -77 133.667 -77 203c0 94 43.333 191.333 130 292c95.333 110 179.666 186.667 252.999 230c12.667 7.33301 25 11 37 11c16.667 0 33.5 -6 50.5 -18s25.5 -25.667 25.5 -41c0 -8 -3.33301 -15 -10 -21
c-11.333 -10.667 -28.333 -23.334 -51 -38.001c-27.333 -17.333 -45 -29 -53 -35c-182 -138.667 -273 -271 -273 -397z" />
    <glyph glyph-name="parenright" unicode=")" horiz-adv-x="613" 
d="M136 -66c-16.667 0 -33.335 6 -50.002 18s-25 25.667 -25 41c0 7.33301 3 14 9 20c12 10.667 29 23.334 51 38.001c27.333 17.333 45 29 53 35c181.333 138.667 272 271 272 397c0 111.333 -85 197.333 -255 258c-23.333 4.66699 -55.666 14.667 -96.999 30
c-16.667 10 -25 25.667 -25 47c0 15.333 4 31.333 12 48c9.33301 20 21 30 35 30c-0.666992 0 4 -2.33301 14 -7c113.333 -52.667 176.333 -82.334 189 -89.001c68.667 -38 122.334 -81.667 161.001 -131c51.333 -66.667 77 -134.667 77 -204c0 -94 -43.667 -191 -131 -291
c-96 -110.667 -180.333 -187 -253 -229c-12.667 -7.33301 -25 -11 -37 -11z" />
    <glyph glyph-name="asterisk" unicode="*" horiz-adv-x="462" 
d="M304 742l52.9971 -33.999c21.333 -16 32 -32 32 -48c0 -10 -2.66699 -20.333 -8 -31c-6.66699 -12.667 -14.334 -19 -23.001 -19c-3.33301 0 -34.666 24.333 -93.999 73v-92c0 -13.333 -5.83301 -24.333 -17.5 -33s-24.167 -13 -37.5 -13c-17.333 0 -26 6.66699 -26 20
c0 8 2.66699 37.333 8 88l-36 -29c-16.667 -12 -29.667 -18 -39 -18c-11.333 0 -23 4.66699 -35 14s-18 19.333 -18 30c0 4.66699 2.33301 9 7 13c13.333 10.667 32.666 23.334 57.999 38.001c30.667 18.667 50.334 31 59.001 37c-39.333 17.333 -82.333 38.333 -129 63
c-4.66699 4.66699 -7 11.667 -7 21c0 10 3 21.333 9 34c6.66699 15.333 14.667 23 24 23c3.33301 0 20 -9.33301 50 -28l55 -33c-10.667 58 -16 87.667 -16 89c0 10.667 7.66699 19 23 25c12.667 5.33301 25.334 8 38.001 8c12 0 18.667 -4.66699 20 -14
c2.66699 -16 5.33398 -58.333 8.00098 -127l43 47c22 24 36.333 36 43 36c10.667 0 22.834 -5.33301 36.501 -16s20.5 -21.334 20.5 -32.001c0 -6.66699 -33.667 -37.334 -101 -92.001z" />
    <glyph glyph-name="plus" unicode="+" horiz-adv-x="691" 
d="M386 358c2 -12 10.3311 -42.335 24.998 -91.002c12.667 -44 19 -70 19 -78c0 -15.333 -10.667 -28.666 -32 -39.999c-18 -10 -35.333 -15 -52 -15c-17.333 0 -27.666 6 -30.999 18c-10 42.667 -19.333 108 -28 196c-102 -9.33301 -155.667 -14 -161 -14
c-20 0 -36.333 9.33301 -49 28c-10.667 16.667 -16 36 -16 58c0 16.667 7.66699 25.667 23 27c-4.66699 -0.666992 37.666 -1 126.999 -1c24.667 0 46.334 0.666992 65.001 2c-11.333 100.667 -17 163.334 -17 188.001c0 20.667 9.66699 37.334 29 50.001
c16.667 10.667 36 16 58 16c16.667 0 25.334 -8 26.001 -24c0 0.666992 0 -40 0 -122c0 -38.667 1 -71.667 3 -99c16 2 51.333 10.667 106 26c50.667 14.667 81.667 22 93 22c14.667 0 28 -11 40 -33c10 -19.333 15 -37 15 -53c0 -16.667 -6 -26.334 -18 -29.001
c-32 -7.33301 -107 -18 -225 -32z" />
    <glyph glyph-name="comma" unicode="," horiz-adv-x="387" 
d="M134 -147c-14 0 -26.332 3.66797 -36.999 11.001c-12.667 8 -19 18.333 -19 31c0 11.333 4.66699 26.666 14 45.999c14 26.667 30 64 48 112c20.667 54 35.667 91.167 45 111.5s26.666 30.5 51.999 30.5c15.333 0 30 -4 44 -12c17.333 -9.33301 26 -21.333 26 -36
c0 -10 -20 -53.333 -60 -130c-34 -66.667 -58.667 -112.667 -74 -138c-10 -17.333 -23 -26 -39 -26z" />
    <glyph glyph-name="hyphen" unicode="-" horiz-adv-x="719" 
d="M137 309c-19.333 0 -35.499 8.16895 -48.499 24.502s-19.5 34.166 -19.5 53.499c0 20 7.66699 31 23 33c5.33301 0.666992 33.333 1.66699 84 3c46 1.33301 79 2.66602 99 3.99902c36.667 2.66699 69.667 6.66699 99 12c14 2 51.667 12.333 113 31c57.333 18 88 27 92 27
c15.333 0 28.666 -10.167 39.999 -30.5s17 -38.5 17 -54.5c0 -14.667 -5.33301 -24 -16 -28c-27.333 -10 -106.5 -25 -237.5 -45s-212.833 -30 -245.5 -30z" />
    <glyph glyph-name="hyphen" unicode="&#x2010;" horiz-adv-x="719" 
d="M137 309c-19.333 0 -35.499 8.16895 -48.499 24.502s-19.5 34.166 -19.5 53.499c0 20 7.66699 31 23 33c5.33301 0.666992 33.333 1.66699 84 3c46 1.33301 79 2.66602 99 3.99902c36.667 2.66699 69.667 6.66699 99 12c14 2 51.667 12.333 113 31c57.333 18 88 27 92 27
c15.333 0 28.666 -10.167 39.999 -30.5s17 -38.5 17 -54.5c0 -14.667 -5.33301 -24 -16 -28c-27.333 -10 -106.5 -25 -237.5 -45s-212.833 -30 -245.5 -30z" />
    <glyph glyph-name="period" unicode="." horiz-adv-x="312" 
d="M230 179c0 -8.66699 -4.16699 -31.668 -12.5 -69.001s-14.5 -61.666 -18.5 -72.999c-5.33301 -16 -23.666 -24 -54.999 -24c-28.667 0 -43 10 -43 30c0 28.667 2.66699 72 8 130c1.33301 17.333 24.666 26 69.999 26c34 0 51 -6.66699 51 -20z" />
    <glyph glyph-name="slash" unicode="/" horiz-adv-x="694" 
d="M109 -3c-14.667 0 -30.332 3.33105 -46.999 9.99805c-21.333 9.33301 -32 20 -32 32c0 4.66699 1.66699 10.334 5 17.001c8 16.667 20 37 36 61l40 58l156 244l195 288c18 27.333 46.333 67.333 85 120c17.333 20.667 39.666 31 66.999 31c16.667 0 33 -4 49 -12
c19.333 -10.667 29 -23.667 29 -39c0 -10 -17.333 -35.667 -52 -77l-67 -79c-136.667 -171.333 -254 -340.666 -352 -507.999c-13.333 -27.333 -35.333 -67.333 -66 -120c-12 -17.333 -27.333 -26 -46 -26z" />
    <glyph glyph-name="zero" unicode="0" horiz-adv-x="1040" 
d="M969 467c0 -129.333 -50.999 -241.333 -152.999 -336c-99.333 -92 -214 -138 -344 -138c-114.667 0 -211.334 37.667 -290.001 113s-118 169.666 -118 282.999c0 129.333 50.667 241 152 335c99.333 92.667 214 139 344 139c114 0 210.667 -37.667 290 -113
s119 -169.666 119 -282.999zM822.001 421c0 90 -29.001 168 -87.001 234c-60 68.667 -134.333 103 -223 103c-88 0 -162.333 -34.667 -223 -104c-58 -66 -87 -143.667 -87 -233c0 -90 29 -167.667 87 -233c60.667 -68 135.334 -102 224.001 -102
c87.333 0 161.333 34.333 222 103c58 66 87 143.333 87 232z" />
    <glyph glyph-name="one" unicode="1" horiz-adv-x="388" 
d="M327 72c0 -15.333 -11.667 -27.6689 -35 -37.002c-18.667 -8 -36.667 -12 -54 -12c-16 0 -25.333 6.66699 -28 20c-6.66699 33.333 -11 80 -13 140c-0.666992 48 -1.66699 96 -3 144c-2.66699 105.333 -4.66699 214.333 -6 327c-45.333 -21.333 -71 -32 -77 -32
c-12 0 -23.5 8.33301 -34.5 25s-16.5 31.334 -16.5 44.001c0 18.667 12.333 34 37 46c19.333 10 48 23 86 39c45.333 18.667 73.333 28 84 28c24 0 36 -8.33301 36 -25c0 -15.333 -1.33301 -35.333 -4 -60c-3.33301 -31.333 -5.33301 -51 -6 -59
c-2.66699 -54.667 -4 -108.667 -4 -162c0 -115.333 7.33301 -225.666 22 -330.999c0.666992 -4 4 -20 10 -48c4 -19.333 6 -35 6 -47z" />
    <glyph glyph-name="two" unicode="2" horiz-adv-x="807" 
d="M763 496c0 -92 -36.333 -187 -109 -285c51.333 -38.667 77 -63.667 77 -75c0 -9.33301 -7.16699 -17.333 -21.5 -24s-26.833 -10 -37.5 -10c-14 0 -40 12.667 -78 38c-112.667 -118 -210.667 -177 -294 -177c-68.667 0 -126.667 29.333 -174 88
c-44.667 54.667 -67 117 -67 187c0 52.667 14.667 94.167 44 124.5s70 45.5 122 45.5c87.333 0 198 -41.667 332 -125c60.667 88 91 166.333 91 235c0 65.333 -18.667 117.833 -56 157.5s-88.333 59.5 -153 59.5c-51.333 0 -100.666 -12.667 -147.999 -38
c-20 -10.667 -53.667 -34.334 -101 -71.001c-33.333 -25.333 -59 -38 -77 -38c-22 0 -33 9.33301 -33 28s16.667 49.334 50 92.001c82.667 107.333 180 161 292 161c99.333 0 181.666 -37.667 246.999 -113c62.667 -72 94 -158.667 94 -260zM249 301
c-56 0 -83.999 -39.334 -83.999 -118.001c0 -32.667 6.5 -56.5 19.5 -71.5s35.833 -22.5 68.5 -22.5c67.333 0 132 24.667 194 74c21.333 16.667 32 29.334 32 38.001s-40 31.667 -120 69c-44.667 20.667 -81.334 31 -110.001 31z" />
    <glyph glyph-name="three" unicode="3" horiz-adv-x="757" 
d="M701 296c0 -88.667 -52.999 -165.329 -158.999 -229.996c-94.667 -58 -190 -87 -286 -87c-26 0 -55.667 3 -89 9c-38.667 7.33301 -67.167 16.166 -85.5 26.499s-27.5 27.833 -27.5 52.5c0 36.667 10.333 55 31 55c6.66699 0 18.334 -3.66699 35.001 -11
c51.333 -22 106.333 -33 165 -33c44.667 0 83 7 115 21c105.333 45.333 158 105.333 158 180c0 35.333 -12.333 63.166 -37 83.499s-54.667 30.5 -90 30.5c-16.667 0 -40.667 -2.83301 -72 -8.5s-55 -8.5 -71 -8.5c-26.667 0 -40 12.667 -40 38c0 22.667 11 45.667 33 69
c13.333 14 34.666 25.333 63.999 34c32.667 9.33301 53.667 17.666 63 24.999c19.333 15.333 29 40 29 74c0 32 -12.333 59.167 -37 81.5s-53.334 33.5 -86.001 33.5c-28 0 -56 -10 -84 -30c-12.667 -8.66699 -33.334 -27.334 -62.001 -56.001
c-20.667 -19.333 -35.667 -29 -45 -29c-16 0 -24 14.667 -24 44c0 22 15.333 53 46 93c26.667 34 58 61.667 94 83c40 24 79.333 36 118 36s73.334 -13.333 104.001 -40c68 -59.333 102 -117 102 -173c0 -60.667 -27.667 -114.334 -83 -161.001
c66 -19.333 115.667 -41.333 149 -66c48 -35.333 72 -80.666 72 -135.999z" />
    <glyph glyph-name="four" unicode="4" horiz-adv-x="828" 
d="M603 312c1.33301 -24 6.66309 -62.334 15.9961 -115.001c9.33301 -49.333 14.333 -87.666 15 -114.999v-6c0 -14 -10.667 -26 -32 -36c-18.667 -8 -35.667 -12 -51 -12c-20 0 -31.333 6.66699 -34 20c-6 24.667 -10 65.667 -12 123l-2 128
c-69.333 -10.667 -133.666 -23.667 -192.999 -39l-102 -32c-54 -17.333 -83.667 -26 -89 -26c-16 0 -29.333 6.83301 -40 20.5s-16 29.167 -16 46.5c0 8 1.66699 16 5 24c-5.33301 163.333 -8 280.333 -8 351c0 37.333 0.333008 59 1 65
c0.666992 20.667 8.83398 38 24.501 52s33.834 21 54.501 21c25.333 0 38 -10 38 -30c0 -25.333 -2 -60.333 -6 -105c-4 -49.333 -6.33301 -84.333 -7 -105c-0.666992 -29.333 -1 -59.666 -1 -90.999c0 -35.333 0.666992 -70 2 -104c114 34.667 225.333 57 334 67
c-4 130.667 -6 226.667 -6 288v42c0.666992 20 8.83398 36 24.501 48s33.834 18 54.501 18c24.667 0 37 -9 37 -27c0 -14 -1.33301 -32.333 -4 -55c-2.66699 -29.333 -4.33398 -48 -5.00098 -56c-3.33301 -54.667 -5 -108.334 -5 -161.001c0 -30.667 0.666992 -61 2 -91
c6.66699 0 17.5 0.333008 32.5 1s26.167 1 33.5 1c18.667 0 39 -6.33301 61 -19c25.333 -14.667 38 -30.667 38 -48c0 -16 -23 -27.667 -69 -35z" />
    <glyph glyph-name="five" unicode="5" horiz-adv-x="668" 
d="M218 692l38.001 -176.004c147.333 -6.66699 248.333 -45 303 -115c37.333 -48 56 -97.667 56 -149s-18.667 -98.666 -56 -141.999c-32 -37.333 -73.667 -67.666 -125 -90.999c-40 -18 -88.333 -27 -145 -27c-76 0 -142.333 13.333 -199 40c-31.333 14.667 -47 40 -47 76
c0 21.333 6.66699 32 20 32c5.33301 0 17.666 -3.66699 36.999 -11c56 -22 114.667 -33 176 -33c53.333 0 101.666 14 144.999 42c49.333 32 74 73.333 74 124c0 43.333 -18 79.333 -54 108c-32.667 27.333 -71 41 -115 41c-15.333 0 -37.5 -3 -66.5 -9s-49.5 -9 -61.5 -9
c-21.333 0 -37.666 8.33301 -48.999 25c-7.33301 10.667 -14.333 28.334 -21 53.001l-57 224c-4 17.333 -6 28.333 -6 33c0 25.333 12 43.333 36 54c114.667 49.333 243 74 385 74c22 0 37.333 -0.333008 46 -1c16 -1.33301 34 -8.66602 54 -21.999
c22 -15.333 33 -30 33 -44c0 -5.33301 -1.33301 -10 -4 -14c-6 -10 -26.333 -16.667 -61 -20c-150 -14.667 -262 -35.667 -336 -63z" />
    <glyph glyph-name="six" unicode="6" horiz-adv-x="850" 
d="M797 343c0 -54.667 -31.3311 -113.335 -93.998 -176.002c-52.667 -52.667 -109.334 -92.667 -170.001 -120c-56.667 -26 -113.667 -39 -171 -39c-93.333 0 -169.666 42 -228.999 126c-52.667 76 -79 162.333 -79 259c0 134 53 247 159 339c79.333 68 185.333 102 318 102
c20 0 35 -2 45 -6c12.667 -6 22 -19 28 -39c14 -52.667 32.333 -98 55 -136c1.33301 -3.33301 2 -6.66602 2 -9.99902c0 -14 -8.33301 -27.5 -25 -40.5s-32 -19.5 -46 -19.5c-11.333 0 -20.833 5.16699 -28.5 15.5s-16.167 25.5 -25.5 45.5c-12.667 27.333 -20 43 -22 47
c-122.667 -19.333 -213.334 -64.166 -272.001 -134.499s-87.667 -140.833 -87 -211.5c201.333 72 357.666 108 468.999 108c115.333 0 173 -36.667 173 -110zM690.002 298.999c0 14 -11.665 24.334 -34.998 31.001c-16.667 4.66699 -34.334 7 -53.001 7
c-70 0 -208 -36.667 -414 -110c37.333 -60 98.333 -90 183 -90c46.667 0 93.667 9.66699 141 29c39.333 15.333 74.666 32.666 105.999 51.999c48 30.667 72 57.667 72 81z" />
    <glyph glyph-name="seven" unicode="7" horiz-adv-x="759" 
d="M378 28c-14.667 0 -29 2.66797 -43 8.00098c-18 7.33301 -27 17.333 -27 30c0 26 88.333 233.333 265 622c-37.333 1.33301 -72.666 2 -105.999 2c-102 0 -197 -7.66699 -285 -23c-2 0 -15.667 -3 -41 -9c-16.667 -4 -30.334 -6 -41.001 -6
c-16 0 -28.667 6.16699 -38 18.5s-14 26.833 -14 43.5c0 33.333 14.667 54.333 44 63c70 20.667 167.667 31 293 31c121.333 0 206.333 -7 255 -21c19.333 -5.33301 38 -19 56 -41c11.333 -13.333 17 -23.333 17 -30c0 -4.66699 -3 -11.667 -9 -21
c-106 -170.667 -188.667 -352 -248 -544c-5.33301 -22.667 -14.666 -55.334 -27.999 -98.001c-6.66699 -16.667 -23.334 -25 -50.001 -25z" />
    <glyph glyph-name="eight" unicode="8" horiz-adv-x="830" 
d="M772 254c0 -94 -61.667 -170.668 -185 -230.001c-101.333 -49.333 -204.333 -74 -309 -74c-150.667 0 -226 48.333 -226 145c0 49.333 20.667 106.333 62 171c34 52 74 99.333 120 142c-33.333 5.33301 -61.333 19.333 -84 42s-34 50.334 -34 83.001
c0 56 37 131.333 111 226c61.333 78.667 132 118 212 118c38.667 0 73 -13 103 -39c68 -58 102 -115.667 102 -173c0 -61.333 -27.333 -115 -82 -161c50.667 -16 97.667 -48.333 141 -97c46 -51.333 69 -102.333 69 -153zM537 616.999c0 35.333 -10 67.667 -30 97
c-22 33.333 -50 50 -84 50c-38 0 -78.5 -18.833 -121.5 -56.5s-64.5 -75.167 -64.5 -112.5c0 -32.667 17.333 -57 52 -73c26 -12 57.667 -18 95 -18c39.333 0 73.333 8.66699 102 26c34 20.667 51 49.667 51 87zM458 391c-48 0 -93.666 -13.668 -136.999 -41.001
c-34.667 -22 -64.667 -46 -90 -72c-34.667 -36 -52 -68.667 -52 -98c0 -38.667 28.333 -68.667 85 -90c43.333 -16 88.666 -24 135.999 -24c56 0 104.667 10.333 146 31c52.667 26 79 64 79 114c0 36.667 -13.833 75.834 -41.5 117.501s-69.5 62.5 -125.5 62.5z" />
    <glyph glyph-name="nine" unicode="9" horiz-adv-x="842" 
d="M753 284c0 -26.667 2.66992 -66.498 8.00293 -119.498s8 -92.833 8 -119.5c0 -16 -11 -29.333 -33 -40c-18.667 -9.33301 -36.667 -14 -54 -14c-19.333 0 -30.333 6.66699 -33 20c-0.666992 3.33301 -1.33398 23.666 -2.00098 60.999
c-0.666992 26 -3.33398 75.667 -8.00098 149c-4 62.667 -6 112.667 -6 150c-106.667 -64.667 -224.334 -97 -353.001 -97c-61.333 0 -111.333 10.667 -150 32c-48 27.333 -72 69.666 -72 126.999c0 66 49.667 154.667 149 266c37.333 41.333 81 75 131 101
c54 27.333 107.333 41 160 41c54 0 102 -16 144 -48c91.333 -68.667 137 -140.667 137 -216c0 -12.667 -1.66699 -28.667 -5 -48c-14 -83.333 -21 -165 -21 -245zM465.003 717.002c-48 0 -93.665 -13.668 -136.998 -41.001c-34.667 -22 -64.667 -46 -90 -72
c-34.667 -36 -52 -68.667 -52 -98c0 -38.667 28.667 -68.667 86 -90c43.333 -16 88.666 -24 135.999 -24c56 0 104.667 10.333 146 31c52.667 26 79 64 79 114c0 36.667 -13.833 75.834 -41.5 117.501s-69.834 62.5 -126.501 62.5z" />
    <glyph glyph-name="colon" unicode=":" horiz-adv-x="329" 
d="M173 332c-28 0 -42 9.66602 -42 28.999c0 28.667 2.66699 72.334 8 131.001c2 17.333 24.667 26 68 26c35.333 0 53 -6 53 -18c0 -9.33301 -4.16699 -33 -12.5 -71s-14.5 -62.667 -18.5 -74c-5.33301 -15.333 -24 -23 -56 -23zM232 178.999
c0 -8.66699 -4.16797 -31.668 -12.501 -69.001s-14.5 -61.666 -18.5 -72.999c-5.33301 -16 -23.666 -24 -54.999 -24c-28.667 0 -43 10 -43 30c0 28.667 2.66699 72 8 130c2 17.333 25.333 26 70 26c34 0 51 -6.66699 51 -20z" />
    <glyph glyph-name="semicolon" unicode=";" horiz-adv-x="357" 
d="M182 332c-28 0 -42 9.66602 -42 28.999c0 28.667 2.66699 72.334 8 131.001c1.33301 17.333 24 26 68 26c35.333 0 53 -6 53 -18c0 -9.33301 -4.16699 -33 -12.5 -71s-14.5 -62.667 -18.5 -74c-5.33301 -15.333 -24 -23 -56 -23zM124 -147.001
c-13.333 0 -26 3.83398 -38 11.501s-18 17.834 -18 30.501c0 11.333 5 26.666 15 45.999c13.333 26.667 29.333 64 48 112c20.667 54 35.5 91.167 44.5 111.5s26.167 30.5 51.5 30.5c15.333 0 30.833 -4.33301 46.5 -13s23.5 -20.334 23.5 -35.001
c0 -10 -19.667 -53.333 -59 -130c-34 -66.667 -58.667 -112.667 -74 -138c-10.667 -17.333 -24 -26 -40 -26z" />
    <glyph glyph-name="less" unicode="&#x3c;" horiz-adv-x="725" 
d="M177 401l415 -281l83 -59c18 -14.667 27 -30.667 27 -48c0 -12.667 -4.33301 -27.667 -13 -45c-10 -20.667 -20.333 -31 -31 -31c-8 0 -28.333 13.667 -61 41l-61 53c-134.667 108 -269 197.667 -403 269c-21.333 8.66699 -51.666 23.667 -90.999 45
c-11.333 8 -17 18.667 -17 32c0 15.333 4.66699 33 14 53c10.667 23.333 22.667 34.333 36 33c75.333 66 219 183.667 431 353c20 16.667 50.333 40.667 91 72c13.333 9.33301 25.666 14 36.999 14c13.333 0 29.5 -7.16699 48.5 -21.5s28.5 -27.833 28.5 -40.5
c0 -6.66699 -4 -13.667 -12 -21c-11.333 -10 -27.333 -21.333 -48 -34c-30 -18 -47 -28.333 -51 -31c-171.333 -116 -312.333 -233.667 -423 -353z" />
    <glyph glyph-name="equal" unicode="=" horiz-adv-x="756" 
d="M129 444c-19.333 0 -35.5 8.16895 -48.5 24.502s-19.5 34.166 -19.5 53.499s7.33301 30.333 22 33c5.33301 0.666992 37 2 95 4c41.333 1.33301 72.666 2.66602 93.999 3.99902c34.667 2.66699 65.667 6.66699 93 12c14.667 2 52.334 12.667 113.001 32
c58 18 89 27 93 27c14.667 0 28.334 -10.667 41.001 -32c10.667 -19.333 16 -37 16 -53c0 -14.667 -5.66699 -24 -17 -28c-27.333 -10 -106.333 -25.333 -237 -46s-212.334 -31 -245.001 -31zM183 230.002c-18.667 0 -34.834 8.33301 -48.501 25s-20.5 34.667 -20.5 54
c0 18.667 8 29.334 24 32.001c5.33301 0.666992 33.666 2 84.999 4c44.667 2 77.667 3.66699 99 5c36 2.66699 68.333 6.66699 97 12c14.667 2 52.667 12.333 114 31c58.667 18 89.334 27 92.001 27c15.333 0 29 -11 41 -33c11.333 -18.667 17 -36.334 17 -53.001
c0 -14 -5.66699 -23 -17 -27c-28 -10 -107.167 -25.333 -237.5 -46s-212.166 -31 -245.499 -31z" />
    <glyph glyph-name="greater" unicode="&#x3e;" horiz-adv-x="769" 
d="M730 377c0 -13.333 -6 -24.001 -18 -32.001l-90 -45c-134 -70.667 -268.333 -160.667 -403 -270l-61 -52c-32 -27.333 -52.333 -41 -61 -41c-11.333 0 -21.666 10 -30.999 30c-8.66699 18 -13 33.333 -13 46c0 17.333 8.66699 33.333 26 48
c2.66699 2 30.667 21.667 84 59l415 281c-116 122.667 -257.333 240.334 -424 353.001c-23.333 13.333 -56.333 35 -99 65c-6.66699 6 -10 12.667 -10 20c0 16 8.66699 30.167 26 42.5s34 18.5 50 18.5c12.667 0 25 -4 37 -12l92 -72l216 -174l213 -179
c13.333 1.33301 25.666 -9.66699 36.999 -33c9.33301 -20 14 -37.667 14 -53z" />
    <glyph glyph-name="question" unicode="?" horiz-adv-x="795" 
d="M249 407l-13.9971 -55.998c-7.33301 -13.333 -24 -20 -50 -20c-32.667 0 -49 8 -49 24c0 34 2.66699 76.333 8 127c1.33301 11.333 4.5 18.666 9.5 21.999s13.5 5 25.5 5c8.66699 0 22.167 -0.333008 40.5 -1s32.166 -1 41.499 -1c142.667 0 238 21.333 286 64
c37.333 32.667 56 65.334 56 98.001c0 47.333 -30.333 86.666 -91 117.999c-50.667 25.333 -102 38 -154 38c-40.667 0 -82.334 -10.333 -125.001 -31c-25.333 -12 -56.333 -31 -93 -57c-28.667 -20 -46.334 -30 -53.001 -30c-11.333 0 -17 11 -17 33c0 32 9.33301 56 28 72
c44 37.333 96.167 67 156.5 89s119.5 33 177.5 33c80 0 153.333 -21.667 220 -65c76.667 -48.667 115 -111 115 -187c0 -46 -19.333 -88 -58 -126c-84.667 -84.667 -238 -134.334 -460 -149.001zM226.003 185.002c0 -5.33301 -4.16895 -23.3311 -12.502 -53.998
s-14.166 -49.667 -17.499 -57c-5.33301 -12.667 -23.666 -19 -54.999 -19c-29.333 0 -44 8 -44 24c0 1.33301 0.333008 3.66602 1 6.99902c2.66699 29.333 5 58.666 7 87.999c4 17.333 27 26 69 26c34.667 0 52 -5 52 -15z" />
    <glyph glyph-name="at" unicode="@" horiz-adv-x="996" 
d="M932 493c0 -83.333 -24 -166.499 -72 -249.499s-110 -150.5 -186 -202.5c-80.667 -54 -163.334 -81 -248.001 -81c-103.333 0 -190.833 36.5 -262.5 109.5s-107.5 161.167 -107.5 264.5c0 83.333 24 166.666 72 249.999s109.667 151 185 203c80 54.667 162.333 82 247 82
c102.667 0 190.334 -36.833 263.001 -110.5s109 -162.167 109 -265.5zM800 430.001c0 84 -24.001 158.333 -72.001 223c-52 70.667 -119 106 -201 106c-51.333 0 -104.666 -16.333 -159.999 -49c-125.333 -74.667 -188 -182.667 -188 -324c0 -84.667 23.667 -159 71 -223
c52 -71.333 119 -107 201 -107c51.333 0 104.333 16.333 159 49c126.667 74.667 190 183 190 325zM683.999 356.001c0 -66.667 -23.999 -119.333 -71.999 -158c-44.667 -35.333 -101.334 -53 -170.001 -53c-41.333 0 -75.333 8.33301 -102 25
c-32.667 19.333 -49 48.333 -49 87c0 42.667 21.333 94.5 64 155.5s100.667 91.5 174 91.5c22 0 46 -2.66699 72 -8c-3.33301 23.333 -10 39.833 -20 49.5s-26.333 14.5 -49 14.5c-19.333 0 -47 -3.66699 -83 -11s-61 -11 -75 -11c-12.667 0 -24.167 6.16699 -34.5 18.5
s-15.5 25.166 -15.5 38.499c0 14 12 24.333 36 31c64 17.333 126.333 26 187 26c39.333 0 66.333 -5.66699 81 -17c22 -17.333 36.667 -52 44 -104c2.66699 -39.333 5.66699 -78.666 9 -117.999c2 -26.667 3 -45.667 3 -57zM523 418.002
c-23.333 0 -54.667 -13.998 -94 -41.998c-41.333 -29.333 -62 -55 -62 -77c0 -18.667 12 -34.334 36 -47.001c20 -11.333 40.333 -17 61 -17c30 0 58.333 9 85 27c30 19.333 45 43.666 45 72.999c0 18 -7.33301 36.333 -22 55s-31 28 -49 28z" />
    <glyph glyph-name="A" unicode="A" horiz-adv-x="836" 
d="M803 99c0 -17.333 -9.16699 -33.332 -27.5 -47.999s-36.5 -22 -54.5 -22c-10 0 -18 3.66699 -24 11c-10.667 12.667 -21.667 32 -33 58l-26 63c-122.667 -30 -277 -62 -463 -96l-23 -50c-11.333 -21.333 -24 -32 -38 -32c-18.667 0 -36.334 11.167 -53.001 33.5
s-25 42.833 -25 61.5c0 10 8.66699 29 26 57l37 57c62 110.667 133.333 275.667 214 495c9.33301 24 22.333 60.333 39 109c10.667 34.667 36.334 52 77.001 52c19.333 0 33.333 -9 42 -27l48 -131c69.333 -182.667 143.333 -341.667 222 -477l36 -58
c17.333 -28.667 26 -47.334 26 -56.001zM584 287.001l-163 382.999c-26.667 -60.667 -58.667 -139 -96 -235l-92 -237c128.667 20.667 245.667 50.334 351 89.001z" />
    <glyph glyph-name="B" unicode="B" horiz-adv-x="806" 
d="M286 2c-66.667 0 -113.996 2.66406 -141.996 7.99707c-14.667 2.66699 -25 10.334 -31 23.001c-10 20 -17.667 171.667 -23 455c-2.66699 -0.666992 -5.33398 -1 -8.00098 -1c-14.667 0 -26.334 9.33301 -35.001 28c-6 14.667 -9 30.334 -9 47.001
c0 17.333 5.66699 35.333 17 54l36 45c49.333 60 97.666 104 144.999 132c55.333 32.667 118 49 188 49c79.333 0 144.666 -20.333 195.999 -61c54.667 -44.667 82 -105.667 82 -183c0 -79.333 -52 -150 -156 -212c49.333 -14 92.333 -36.333 129 -67
c46 -36.667 69 -77 69 -121c0 -67.333 -58.667 -120.666 -176 -159.999c-70 -24 -164 -36 -282 -36zM606.004 586.997c0 40 -23.668 72.6641 -71.001 97.9971c-40 21.333 -82 32 -126 32c-71.333 0 -143.666 -37.333 -216.999 -112c-1.33301 -39.333 -2 -78.666 -2 -117.999
c0 -32 0.333008 -64 1 -96c186 4.66699 306 34.334 360 89.001c36.667 36.667 55 72.334 55 107.001zM385.003 301.994c-69.333 0 -131.333 -20.333 -186 -61c4 -41.333 8.66699 -80 14 -116c72.667 -5.33301 135.334 -8 188.001 -8c104 0 171.333 9.66699 202 29
c28.667 17.333 43 34 43 50c0 32.667 -36.333 59.667 -109 81c-56.667 16.667 -107.334 25 -152.001 25z" />
    <glyph glyph-name="C" unicode="C" horiz-adv-x="786" 
d="M764 243c0 -9.33301 -2.33398 -16.667 -7.00098 -22c-12 -11.333 -35 -29.333 -69 -54c-149.333 -106.667 -284 -160 -404 -160c-79.333 0 -141.333 28 -186 84c-41.333 51.333 -62 117.333 -62 198c0 154.667 61 286.667 183 396c118 105.333 255.667 158 413 158
c19.333 0 34 -2 44 -6c12 -6 18 -19 18 -39v-31c0 -16 3.83301 -36.5 11.5 -61.5s11.5 -41.5 11.5 -49.5c0 -12.667 -11.333 -26.5 -34 -41.5s-41 -22.5 -55 -22.5c-10 0 -17.5 5.16699 -22.5 15.5s-9.83301 25.5 -14.5 45.5c-5.33301 25.333 -9 41 -11 47
c-152 -23.333 -266.667 -79.666 -344 -168.999c-69.333 -80 -104 -155.333 -104 -226c0 -54 21.333 -96.667 64 -128c38 -27.333 85.667 -41 143 -41c46 0 101.667 13.333 167 40c40.667 17.333 91.334 42.666 152.001 75.999c49.333 27.333 77 41 83 41
c15.333 0 23 -16.667 23 -50z" />
    <glyph glyph-name="D" unicode="D" horiz-adv-x="867" 
d="M116 3c-12.667 0 -21 6.00098 -25 18.001c-6.66699 18 -13.334 183.333 -20.001 496c-12 14.667 -18 33.334 -18 56.001c0 16.667 4.33301 31.167 13 43.5s25.334 30.833 50.001 55.5c50 48.667 104.667 87.667 164 117c66 32 131 48 195 48
c93.333 0 172.833 -33.333 238.5 -100s98.5 -146.667 98.5 -240c0 -122.667 -60.333 -227.334 -181 -314.001c-95.333 -68.667 -212.333 -117.334 -351 -146.001c-24 -3.33301 -59.667 -10 -107 -20c-32.667 -9.33301 -51.667 -14 -57 -14zM194 135.001
c122 11.333 225.668 39 311.001 83c116.667 60.667 175 143 175 247c0 68.667 -25.5 127 -76.5 175s-110.833 72 -179.5 72c-86.667 0 -170.334 -38 -251.001 -114c-2.66699 -44.667 -4 -88 -4 -130c0 -118 8.33301 -229 25 -333z" />
    <glyph glyph-name="E" unicode="E" horiz-adv-x="752" 
d="M170 366c2.66699 -82.667 9.99902 -162.666 21.999 -239.999h9c61.333 -0.666992 130.333 6.66602 207 21.999c30.667 6 98.667 21.667 204 47c13.333 3.33301 24 5 32 5c25.333 0 38 -11 38 -33c0 -14 -5.16699 -29.667 -15.5 -47s-21.833 -29.333 -34.5 -36
c-56 -28.667 -127 -52 -213 -70c-78.667 -16 -152.667 -24 -222 -24c-33.333 0 -53 0.666992 -59 2c-22.667 3.33301 -38.167 13.333 -46.5 30s-15.166 123.667 -20.499 321c-26.667 9.33301 -40 30.333 -40 63c0 28.667 12 48 36 58h1c-0.666992 12 -1.66699 50.333 -3 115
c-0.666992 47.333 -1 86 -1 116c0 22 0.333008 35.333 1 40c2.66699 13.333 10 24.333 22 33c9.33301 6.66699 26 13.334 50 20.001l122.5 40c41 13.333 85.833 20 134.5 20c60.667 0 103 -2.33301 127 -7c16 -3.33301 32.667 -14.833 50 -34.5s26 -37.5 26 -53.5
c0 -22.667 -20 -35.334 -60 -38.001c-90.667 -6 -152.667 -12 -186 -18c-48 -9.33301 -107.667 -29 -179 -59c-3.33301 -45.333 -5 -93 -5 -143c150.667 44 296.667 66 438 66c18 0 30.667 -0.333008 38 -1c15.333 -1.33301 33 -8.66602 53 -21.999
c22.667 -14.667 34 -29.334 34 -44.001c0 -18 -22 -29.333 -66 -34c-202 -20 -366.667 -51.333 -494 -94z" />
    <glyph glyph-name="F" unicode="F" horiz-adv-x="693" 
d="M163 366c1.33301 -38.667 6.33203 -90.335 14.999 -155.002c10.667 -74.667 17.334 -126 20.001 -154v-4c1.33301 -14.667 -9 -27 -31 -37c-18 -8 -35.333 -12 -52 -12c-20 0 -31.333 6.33301 -34 19c-6.66699 31.333 -12 137 -16 317c-26.667 7.33301 -40 29 -40 65
c0 32 12.333 51 37 57c-3.33301 94 -5 162.667 -5 206v53c2.66699 19.333 10.667 34 24 44c8.66699 6.66699 25.334 13.334 50.001 20.001l121.5 40c40.333 13.333 85.166 20 134.499 20c61.333 0 104 -2.33301 128 -7c16 -3.33301 32.667 -14.666 50 -33.999s26 -37 26 -53
c0 -23.333 -20.333 -36.333 -61 -39c-91.333 -6 -153.333 -12 -186 -18c-48 -9.33301 -107.667 -29 -179 -59c-2.66699 -48 -4 -94.667 -4 -140c137.333 42 270.333 63 399 63c17.333 0 29.333 -0.333008 36 -1c15.333 -2 32 -9.33301 50 -22
c20.667 -14.667 31 -29.334 31 -44.001c0 -5.33301 -1.33301 -10 -4 -14c-6 -10 -25 -16.667 -57 -20c-182.667 -19.333 -333.667 -49.666 -453 -90.999z" />
    <glyph glyph-name="G" unicode="G" horiz-adv-x="918" 
d="M308 0c-82.667 0 -147 28.3311 -193 84.998c-42 52.667 -63 121.334 -63 206.001c0 153.333 61.333 283.666 184 390.999c118 104 255 156 411 156c30 0 48.333 -5 55 -15c4.66699 -6.66699 7 -25.334 7 -56.001c0 -16.667 3.83301 -38 11.5 -64s11.5 -43 11.5 -51
c0 -13.333 -11.167 -27.5 -33.5 -42.5s-40.5 -22.5 -54.5 -22.5c-13.333 0 -24.333 15 -33 45l-16 64c-134 -20.667 -239.333 -68 -316 -142c-36.667 -35.333 -66.667 -73.666 -90 -114.999c-28.667 -49.333 -43 -95.666 -43 -138.999c0 -50.667 18.333 -91.334 55 -122.001
c34 -30 76.667 -45 128 -45c60.667 0 132.334 16.333 215.001 49s145.334 69.667 188.001 111c16 16 24 29 24 39c0 23.333 -28 35 -84 35c-90.667 0 -213.334 -18.333 -368.001 -55c-16.667 -4 -29 -6 -37 -6c-19.333 0 -29 9.66699 -29 29c0 16 8.16699 34.667 24.5 56
s32.166 35.333 47.499 42c30 12.667 84.333 23.334 163 32.001c66 7.33301 122 11 168 11c153.333 0 230 -32.333 230 -97c0 -51.333 -44 -112.666 -132 -183.999c-160 -130 -303.667 -195 -431 -195z" />
    <glyph glyph-name="H" unicode="H" horiz-adv-x="744" 
d="M679 94c0 -16.667 -9.66699 -30.0029 -29 -40.0029c-16 -8.66699 -33.333 -13 -52 -13c-21.333 0 -33.666 7.33301 -36.999 22c-4 19.333 -6.33301 48.333 -7 87c-0.666992 29.333 -1 59 -1 89c-3.33301 68.667 -6 134.667 -8 198
c-136.667 -18.667 -258.334 -48 -365.001 -88c3.33301 -69.333 9 -134 17 -194l2 -11c0 -3.33301 3 -19.666 9 -48.999c4 -20 6 -36.333 6 -49c0 -13.333 -10.667 -25 -32 -35c-18 -8.66699 -34.667 -13 -50 -13c-20 0 -31.667 6.66699 -35 20s-5.33301 31.333 -6 54l-2 55
l-22 284c-8 109.333 -12 204 -12 284v38c1.33301 20 12.333 36.667 33 50c18.667 10.667 38.667 16 60 16c28 0 42 -11 42 -33c0 -11.333 -0.666992 -25.666 -2 -42.999c-2.66699 -22.667 -4 -36.667 -4 -42c-4.66699 -64.667 -7 -132 -7 -202
c121.333 39.333 243 62.333 365 69c-1.33301 90.667 -2 138 -2 142v69c2.66699 29.333 10.667 49.333 24 60c19.333 15.333 44.666 23 75.999 23c25.333 0 38 -9.33301 38 -28c0 4 -3.33301 -25.667 -10 -89c-6 -57.333 -10 -116 -12 -176c16 -4 32 -12.333 48 -25
c18.667 -14 28 -28 28 -42c0 -21.333 -26 -32 -78 -32v-28c-0.666992 -82.667 3.33301 -161 12 -235c0.666992 -5.33301 3.33398 -20.666 8.00098 -45.999c3.33301 -20 5 -35.667 5 -47z" />
    <glyph glyph-name="I" unicode="I" horiz-adv-x="608" 
d="M333 708c-6 -74.667 -9.00488 -147.002 -9.00488 -217.002c0 -126 9 -245 27 -357c9.33301 2 41 10 95 24c44.667 12 74.334 18 89.001 18c19.333 0 29 -8 29 -24c0 -11.333 -5 -25.333 -15 -42s-20 -27.667 -30 -33c-47.333 -24.667 -107.333 -44.334 -180 -59.001
c-66.667 -13.333 -129.667 -20 -189 -20c-34 0 -57 2.66699 -69 8c-20 9.33301 -30 29.333 -30 60c0 32.667 14 49 42 49c6.66699 0 16.834 -0.333008 30.501 -1s23.834 -1 30.501 -1c30.667 0 59.334 1.33301 86.001 4c-8.66699 124 -14.334 311 -17.001 561l-64 -28
c-31.333 -13.333 -51.666 -20 -60.999 -20c-16 0 -29 10.333 -39 31c-7.33301 16.667 -11 34.334 -11 53.001c0 36 12 60 36 72c94 46.667 193 70 297 70c50.667 0 85.667 -2.66699 105 -8c36.667 -10 62.334 -32 77.001 -66c2.66699 -8 4 -15.333 4 -22
c0 -7.33301 -1.33301 -13.666 -4 -18.999c-7.33301 -11.333 -26 -17.666 -56 -18.999c-39.333 -2 -97.333 -6.66699 -174 -14z" />
    <glyph glyph-name="J" unicode="J" horiz-adv-x="867" 
d="M807 615c0 -114.667 -16.332 -227.336 -48.999 -338.003c-22.667 -77.333 -65.5 -140.333 -128.5 -189s-134.833 -73 -215.5 -73c-85.333 0 -163 32.667 -233 98c-36.667 34.667 -66 79.334 -88 134.001c-20 50.667 -31.333 103.334 -34 158.001v9
c-2 36.667 18.333 55 61 55c24.667 0 39.667 -21 45 -63c11.333 -90 41 -156 89 -198c54 -47.333 114 -71 180 -71c55.333 0 104.333 14.667 147 44c45.333 30.667 73.666 72.334 84.999 125.001c8.66699 40 13 90.333 13 151c0 120.667 -10 204.667 -30 252
c-4.66699 10.667 -20 16 -46 16c-25.333 0 -60.333 -5.16699 -105 -15.5s-74 -15.5 -88 -15.5c-14.667 0 -22 9.66699 -22 29c0 50.667 16.667 81.667 50 93c55.333 18.667 130 28 224 28c26 0 46.667 -1 62 -3c38 -5.33301 61 -27 69 -65c9.33301 -45.333 14 -99 14 -161z
" />
    <glyph glyph-name="K" unicode="K" horiz-adv-x="729" 
d="M696 767c0 -10 -14.3311 -26.998 -42.998 -50.998s-64 -56 -106 -96c-64.667 -61.333 -99.334 -94.333 -104.001 -99l-193 -184c104.667 -80 221.334 -149.333 350.001 -208l46 -18c22.667 -10.667 34 -19.334 34 -26.001c0 -13.333 -14 -26 -42 -38
c-24.667 -10.667 -44.667 -16 -60 -16c-11.333 0 -84 23 -218 69c-76 26 -141.333 60.667 -196 104c1.33301 -10 4.66602 -31.667 9.99902 -65c4 -28 6 -49.333 6 -64c0 -16.667 -9.33301 -30.334 -28 -41.001c-16 -8.66699 -33.333 -13 -52 -13c-21.333 0 -33.5 7 -36.5 21
s-4.5 32.333 -4.5 55c-0.666992 18.667 -1 37 -1 55c-10.667 229.333 -16 416 -16 560c0 22 0.333008 37.667 1 47c2 20 13.333 36 34 48c17.333 10.667 37 16 59 16c28.667 0 43 -9.33301 43 -28c0 -16.667 -1.66699 -38 -5 -64
c-4.66699 -35.333 -7.33398 -56.333 -8.00098 -63c-7.33301 -84 -11 -166.667 -11 -248l1 -2l2 -1c130 122 251.333 230 364 324l36 31c15.333 12.667 28.5 20.667 39.5 24s23.5 5 37.5 5c40.667 0 61 -11.333 61 -34z" />
    <glyph glyph-name="L" unicode="L" horiz-adv-x="634" 
d="M159 16c-34 0 -54.666 0.669922 -61.999 2.00293c-24.667 3.33301 -40.667 13.666 -48 30.999s-14.333 120 -21 308c-4.66699 148.667 -7 261 -7 337c0 30.667 0.333008 49.334 1 56.001c0.666992 20 9 36 25 48s34 18 54 18c25.333 0 38 -9 38 -27
c0 -13.333 -1 -31 -3 -53c-3.33301 -29.333 -5 -47 -5 -53c-4.66699 -64 -7 -126 -7 -186c0 -126.667 8.66699 -241.334 26 -344.001h10c60 -0.666992 121 4.66602 183 15.999c3.33301 0.666992 78.666 18.334 225.999 53.001c12.667 3.33301 23.334 5 32.001 5
c26 0 39 -11.333 39 -34c0 -14.667 -5.16699 -30.334 -15.5 -47.001s-21.833 -28.334 -34.5 -35.001c-51.333 -27.333 -121.333 -50.333 -210 -69c-82.667 -17.333 -156.334 -26 -221.001 -26z" />
    <glyph glyph-name="M" unicode="M" horiz-adv-x="1018" 
d="M978 105c0 -17.333 -8.83398 -35.3291 -26.501 -53.9961s-34.834 -28 -51.501 -28c-8 0 -14 3.33301 -18 10c-13.333 22.667 -39.666 105.667 -78.999 249c-22 80.667 -51.667 182 -89 304c-34 -111.333 -64.333 -216.333 -91 -315c-42.667 -158.667 -70 -248 -82 -268
c-6.66699 -12 -14.667 -18 -24 -18c-16.667 0 -32.334 12.333 -47.001 37c-13.333 22.667 -20 43 -20 61c0 5.33301 0.666992 11 2 17l-141 454c-55.333 -182.667 -105 -339.334 -149 -470.001c-5.33301 -19.333 -15 -46.333 -29 -81c-6.66699 -12 -14.667 -18 -24 -18
c-16 0 -31.333 12.667 -46 38c-14 22.667 -21 42.667 -21 60c0 9.33301 5.66699 26.333 17 51l24 53c22.667 55.333 46.334 121 71.001 197c44 134.667 79 261.667 105 381c7.33301 34.667 25.333 52 54 52c14.667 0 27 -16 37 -48l16 -69
c35.333 -135.333 84.333 -284 147 -446c62 175.333 114.667 365.666 158 570.999c7.33301 34.667 25 52 53 52c12.667 0 22.334 -8.66699 29.001 -26s13 -39.333 19 -66c9.33301 -44 14 -66.333 14 -67c54 -214.667 103 -379.334 147 -494.001
c10 -22.667 24 -57.334 42 -104.001c2 -5.33301 3 -10.333 3 -15z" />
    <glyph glyph-name="N" unicode="N" horiz-adv-x="827" 
d="M722 299c0 -47.333 1.00098 -90.333 3.00098 -129c0.666992 -7.33301 2.33398 -23.333 5.00098 -48c2.66699 -20 4 -36 4 -48c0 -17.333 -11 -30.333 -33 -39c-15.333 -6 -33.333 -9 -54 -9c-22 0 -32.667 7 -32 21l-442 500c-4 -63.333 -6 -123.666 -6 -180.999
c0 -93.333 4.66699 -179 14 -257c0.666992 -4 3 -17 7 -39c3.33301 -16.667 5 -30 5 -40c0 -17.333 -11 -31 -33 -41c-16.667 -7.33301 -35.334 -11 -56.001 -11c-16.667 0 -26.334 7.33301 -29.001 22c0 0.666992 -1.66699 36 -5 106c-10.667 218.667 -16 402.667 -16 552
c0 39.333 1.66699 63.666 5 72.999c6.66699 20.667 25 34.667 55 42c14 3.33301 26.333 5 37 5c16.667 0 29 -4.33301 37 -13l431 -501c2.66699 80.667 6.66699 169 12 265c2 60 7.66699 149.667 17 269c4.66699 39.333 33 59 85 59c22.667 0 34 -8.33301 34 -25
c0 -17.333 -2.66699 -40.333 -8 -69c-7.33301 -39.333 -11.333 -62.333 -12 -69c-16.667 -129.333 -25 -261 -25 -395z" />
    <glyph glyph-name="O" unicode="O" horiz-adv-x="1040" 
d="M969 467c0 -129.333 -50.999 -241.333 -152.999 -336c-99.333 -92 -214 -138 -344 -138c-114.667 0 -211.334 37.667 -290.001 113s-118 169.666 -118 282.999c0 129.333 50.667 241 152 335c99.333 92.667 214 139 344 139c114 0 210.667 -37.667 290 -113
s119 -169.666 119 -282.999zM822.001 421c0 90 -29.001 168 -87.001 234c-60 68.667 -134.333 103 -223 103c-88 0 -162.333 -34.667 -223 -104c-58 -66 -87 -143.667 -87 -233c0 -90 29 -167.667 87 -233c60.667 -68 135.334 -102 224.001 -102
c87.333 0 161.333 34.333 222 103c58 66 87 143.333 87 232z" />
    <glyph glyph-name="P" unicode="P" horiz-adv-x="736" 
d="M157 218c1.33301 -12 5.99902 -41 13.999 -87c6.66699 -40 10 -67 10 -81c0 -16 -10.667 -29 -32 -39c-18 -8.66699 -35.667 -13 -53 -13s-28 5.66699 -32 17c-8 22.667 -14.333 188 -19 496c-11.333 14.667 -17 33.334 -17 56.001c0 16 3.66699 30 11 42
c19.333 31.333 47 63.833 83 97.5s70.333 59.834 103 78.501c69.333 38.667 135.333 58 198 58c74.667 0 140.334 -23.333 197.001 -70c60 -50 90 -111.667 90 -185c0 -110.667 -67.667 -200.334 -203 -269.001c-96 -48.667 -212.667 -82.334 -350 -101.001zM583.999 558
c0 46.667 -25 85.3311 -75 115.998c-43.333 27.333 -90 41 -140 41c-72.667 0 -146.667 -37.667 -222 -113c-2 -40.667 -3 -81.667 -3 -123c0 -49.333 1.33301 -98.666 4 -147.999c195.333 6 321.333 40 378 102c38.667 42.667 58 84.334 58 125.001z" />
    <glyph glyph-name="Q" unicode="Q" horiz-adv-x="995" 
d="M958 470c0 -122 -46 -230.333 -138 -325l54 -24c26 -12.667 39 -24.334 39 -35.001s-5.83301 -20 -17.5 -28s-23.167 -12 -34.5 -12c-13.333 0 -51.333 12.667 -114 38c-85.333 -60 -180.333 -90 -285 -90c-116 0 -212.833 37.167 -290.5 111.5
s-116.5 169.5 -116.5 285.5c0 126.667 50.333 237.667 151 333c99.333 92.667 213 139 341 139c114 0 210.667 -36.667 290 -110c80.667 -75.333 121 -169.666 121 -282.999zM733 199c53.333 64 79.999 137 79.999 219c0 87.333 -28.667 165.333 -86 234
c-60.667 71.333 -134 107 -220 107c-89.333 0 -164.666 -34.333 -225.999 -103c-59.333 -66 -89 -144.333 -89 -235c0 -90 29 -167.667 87 -233c60 -68 134.333 -102 223 -102c51.333 0 100.333 13.667 147 41c-63.333 30.667 -117.333 64.334 -162 101.001
c-64.667 53.333 -97 104.333 -97 153c0 14 3.66699 30 11 48c8.66699 22 18.667 33 30 33c6.66699 0 14.667 -5 24 -15c76 -77.333 119.667 -121.333 131 -132c44.667 -42.667 93.667 -81.334 147 -116.001z" />
    <glyph glyph-name="R" unicode="R" horiz-adv-x="759" 
d="M604 105c0 -12.667 -5.66699 -23.665 -17 -32.998s-23.333 -14 -36 -14c-42.667 0 -104.334 12.333 -185.001 37c-74.667 22.667 -134.334 45.667 -179.001 69c0.666992 -8.66699 4 -28.334 10 -59.001c5.33301 -26 8 -44.667 8 -56c0 -16 -9.33301 -28.667 -28 -38
c-15.333 -7.33301 -31.666 -11 -48.999 -11c-23.333 0 -36.666 6.66699 -39.999 20c-5.33301 22 -9 59 -11 111l-2 115c-3.33301 84 -5.66602 169.667 -6.99902 257c-14 3.33301 -26.167 12.5 -36.5 27.5s-15.5 30.167 -15.5 45.5s8.66699 33.333 26 54
c115.333 140.667 240.333 211 375 211c77.333 0 145.666 -23.333 204.999 -70c64 -50.667 96 -113.667 96 -189c0 -90.667 -49.333 -168 -148 -232c-72 -46.667 -162 -82 -270 -106c50 -28.667 99.667 -53 149 -73c38 -16 70.667 -27.667 98 -35l35 -8
c14.667 -4.66699 22 -12.334 22 -23.001zM601 562.002c0 46.667 -24 85.332 -72 115.999c-42.667 27.333 -88.667 41 -138 41c-72 0 -145.667 -37.667 -221 -113c-2 -40.667 -3 -81.667 -3 -123c0 -49.333 1.33301 -98.666 4 -147.999c191.333 5.33301 315.333 39 372 101
c38.667 42.667 58 84.667 58 126z" />
    <glyph glyph-name="S" unicode="S" horiz-adv-x="880" 
d="M279 1c-45.333 0 -78.9971 6.99902 -100.997 20.999c-33.333 21.333 -62.333 52.5 -87 93.5s-37 80.833 -37 119.5c0 30.667 8.33301 46 25 46s32 -9.66699 46 -29c5.33301 -10.667 15.333 -26.667 30 -48c49.333 -58 122.666 -87 219.999 -87
c62 0 119.333 12.667 172 38c59.333 29.333 99.333 70.333 120 123c7.33301 18 11 33.333 11 46c0 20 -10.667 33.333 -32 40c-58 18.667 -140 31.334 -246 38.001c-84.667 4.66699 -169.334 9 -254.001 13c-44.667 3.33301 -70.334 20 -77.001 50
c-2.66699 12 -4 24.667 -4 38c0 8.66699 1 15.667 3 21c16 40.667 43.667 83.667 83 129c34.667 39.333 72.667 74 114 104c98 71.333 215.333 107 352 107c18.667 0 33.5 -2.33301 44.5 -7s16.833 -17 17.5 -37c0.666992 -13.333 4 -33.333 10 -60s9 -44.334 9 -53.001
c0 -14 -11.5 -28.333 -34.5 -43s-41.833 -22 -56.5 -22c-10.667 0 -20 11 -28 33c-0.666992 0.666992 -5.33398 16.334 -14.001 47.001c-8.66699 0.666992 -17 1 -25 1c-128 0 -228.667 -47 -302 -141c-12.667 -16 -19 -27 -19 -33c0 -5.33301 9 -9 27 -11
c12.667 -0.666992 29.667 -0.666992 51 0c30.667 0.666992 42.334 1 35.001 1c70.667 0 140 -3.66699 208 -11l131 -12c54 -5.33301 96.667 -12.333 128 -21c22.667 -6 34 -31.667 34 -77c0 -16.667 -1.66699 -30.667 -5 -42c-32.667 -108 -104.667 -198.333 -216 -271
c-106 -69.333 -217 -104 -333 -104z" />
    <glyph glyph-name="T" unicode="T" horiz-adv-x="690" 
d="M390 699c-5.33301 -74 -7.99902 -144.334 -7.99902 -211.001c0 -122 8 -237.333 24 -346c0 -2.66699 2.66699 -17.667 8 -45c4 -18 6 -33 6 -45c0 -13.333 -10.667 -25 -32 -35c-18 -8.66699 -35 -13 -51 -13c-20 0 -31.333 6.66699 -34 20
c-0.666992 3.33301 -2.66699 33.666 -6 90.999c-8 136.667 -13.333 324 -16 562c-6.66699 -2 -37.667 -13 -93 -33c-46 -16 -74 -24 -84 -24c-19.333 0 -35 9.66699 -47 29c-10 16 -15 34.333 -15 55c0 36 14.333 60 43 72c111.333 46.667 229.666 70 354.999 70
c58.667 0 99 -2.33301 121 -7c46 -10 77.667 -32.333 95 -67c4 -8.66699 6 -16 6 -22c0 -6.66699 -2 -13 -6 -19c-8 -11.333 -30.333 -17.666 -67 -18.999c-44.667 -1.33301 -111 -5.66602 -199 -12.999z" />
    <glyph glyph-name="U" unicode="U" horiz-adv-x="775" 
d="M708 75c0 -16.667 -9.99902 -30.335 -29.999 -41.002c-16 -8 -33.333 -12 -52 -12c-21.333 0 -33.333 7 -36 21c-2 9.33301 -4 53 -6 131c-51.333 -29.333 -100.666 -52.333 -147.999 -69c-154.667 -55.333 -254 -83 -298 -83c-30.667 0 -47.334 7 -50.001 21
c-3.33301 12 -5 28.333 -5 49v50c-12.667 261.333 -19 424.333 -19 489c0 62 1.33301 104.667 4 128c2 20.667 13 37 33 49c17.333 10 37 15 59 15c29.333 0 44 -9.33301 44 -28c0 -14 -1.66699 -31.333 -5 -52c-4 -31.333 -6.33301 -49 -7 -53
c-8.66699 -86.667 -13 -171.334 -13 -254.001c0 -159.333 5.33301 -246.666 16 -261.999c3.33301 -4.66699 9 -7 17 -7c28 0 88.667 19 182 57c76.667 30.667 138 58 184 82c-7.33301 147.333 -11 255 -11 323c0 63.333 1.33301 106.666 4 129.999c2 20 12.667 36 32 48
c17.333 10.667 36.666 16 57.999 16c30.667 0 46 -9.33301 46 -28c0 -17.333 -2 -40 -6 -68c-4.66699 -37.333 -7.33398 -60 -8.00098 -68c-8 -85.333 -11.667 -163.666 -11 -234.999v-29c0.666992 -62 5.33398 -134 14.001 -216c0 -3.33301 2.33301 -20.666 7 -51.999
c3.33301 -21.333 5 -38.666 5 -51.999z" />
    <glyph glyph-name="V" unicode="V" horiz-adv-x="689" 
d="M344 16c-43.333 0 -69 10.333 -77 31c-15.333 37.333 -55 161.666 -119 372.999c-66.667 220 -100 340 -100 360c0 32.667 23.667 49 71 49c18.667 0 31 -9 37 -27c4.66699 -14 9 -32.333 13 -55c5.33301 -34.667 8.33301 -53.667 9 -57
c36 -176.667 84 -338.667 144 -486l90 255c20.667 62.667 55.334 154.667 104.001 276c13.333 28 34.666 42 63.999 42c43.333 0 65 -9.66699 65 -29c0 -7.33301 -8.33301 -27.666 -25 -60.999l-33 -65c-64.667 -140.667 -115 -296.667 -151 -468
c-3.33301 -24.667 -10 -60.667 -20 -108c-6.66699 -20 -30.667 -30 -72 -30z" />
    <glyph glyph-name="W" unicode="W" horiz-adv-x="1037" 
d="M717 24c-12.667 0 -22.333 9.33203 -29 27.999c-8 22.667 -21.333 67.667 -40 135c-16 56.667 -31 101.667 -45 135c-30.667 70.667 -58.334 138.667 -83.001 204c-52 -146 -81.667 -230.333 -89 -253c-32 -95.333 -56.333 -181 -73 -257
c-7.33301 -34 -25.333 -51 -54 -51c-12.667 0 -22 9 -28 27l-33 131c-56.667 221.333 -106.667 388.666 -150 501.999c-9.33301 21.333 -22.333 53.333 -39 96c-2 5.33301 -3 10.333 -3 15c0 17.333 9 35.5 27 54.5s35.333 28.5 52 28.5c7.33301 0 13 -3.33301 17 -10
c12.667 -22 27.334 -62.333 44.001 -121l34 -129c21.333 -79.333 51.333 -180.666 90 -303.999c27.333 93.333 51.666 168 72.999 224l68 178c24 66 50.667 99 80 99c12 0 22.333 -10 31 -30c2 -5.33301 6.66699 -21 14 -47c4 -14 24 -70 60 -168
c26 -70 51.667 -144.333 77 -223c60 197.333 111.667 359.333 155 486c4 15.333 11.667 37 23 65c6.66699 12 14.334 18 23.001 18c16 0 32 -12.667 48 -38c14 -23.333 21 -43.666 21 -60.999c0 -8.66699 -6 -26 -18 -52l-24 -54c-23.333 -55.333 -47 -120.333 -71 -195
c-43.333 -132 -78.333 -259 -105 -381c-7.33301 -34.667 -25 -52 -53 -52z" />
    <glyph glyph-name="X" unicode="X" horiz-adv-x="709" 
d="M416 415c50 -63.333 97.667 -118.999 143 -166.999c17.333 -15.333 42 -40 74 -74c6 -8 9 -17.667 9 -29c0 -16.667 -6 -35.334 -18 -56.001c-13.333 -22.667 -27.666 -34 -42.999 -34c-5.33301 0 -10.333 2 -15 6c-16 14 -33.667 33.667 -53 59l-47 63l-107 137
c-42 -71.333 -78.667 -139.666 -110 -204.999c-8.66699 -20.667 -22.667 -51 -42 -91c-8.66699 -15.333 -24 -23 -46 -23c-15.333 0 -31 4 -47 12c-18.667 10 -28 22.333 -28 37c0 10 67 131.667 201 365l-118 151c-45.333 59.333 -82.333 111 -111 155
c-10 15.333 -15 31.333 -15 48c0 17.333 5 34.666 15 51.999c12 20 26 30 42 30c7.33301 0 14.666 -4.33301 21.999 -13l64 -102c53.333 -83.333 105.333 -158.333 156 -225l89 151c20 35.333 52 86.666 96 153.999c14 19.333 33.333 29 58 29c17.333 0 35 -5 53 -15
c20 -12 30 -26.333 30 -43c0 -5.33301 -1.66699 -11 -5 -17c-10.667 -13.333 -26 -33.666 -46 -60.999c-65.333 -86.667 -132.333 -184.667 -201 -294z" />
    <glyph glyph-name="Y" unicode="Y" horiz-adv-x="786" 
d="M258 3c-16 0 -32 3.99902 -48 11.999c-18.667 10 -28 22.333 -28 37c0 4 49.333 95.333 148 274l-137 181c-32.667 41.333 -80 105 -142 191c-10.667 17.333 -16 33.333 -16 48c0 14 6.5 31.5 19.5 52.5s25.833 31.5 38.5 31.5c7.33301 0 14.666 -5 21.999 -15
c10.667 -16 25.667 -40 45 -72c71.333 -114.667 146.333 -221.667 225 -321l166 281c14.667 26.667 38.334 65 71.001 115c14.667 19.333 34.334 29 59.001 29c17.333 0 34.666 -5 51.999 -15c20.667 -12 31 -26.333 31 -43c0 -9.33301 -15 -33.666 -45 -72.999l-58 -76
c-122 -169.333 -223.333 -336 -304 -500l-36 -85c-17.333 -34.667 -38.333 -52 -63 -52z" />
    <glyph glyph-name="Z" unicode="Z" horiz-adv-x="770" 
d="M752 124c0 -13.333 -6.83301 -26.666 -20.5 -39.999s-27.5 -22 -41.5 -26c-106 -30 -237.667 -45 -395 -45c-80 0 -143 3.66699 -189 11c-18 2.66699 -34.167 11.334 -48.5 26.001s-21.5 30.667 -21.5 48c0 10 3.33301 20.333 10 31
c0.666992 0.666992 23.667 30.334 69 89.001l139 179l244 301c-16.667 0.666992 -33 1 -49 1c-106 0 -203 -11 -291 -33c-10 -2.66699 -17.667 -4 -23 -4c-16.667 0 -31 7.66699 -43 23s-18 31.666 -18 48.999c0 10 2 19.667 6 29c6 15.333 20 26.666 42 33.999
c80 26.667 170 40 270 40c67.333 0 126 -5 176 -15c84.667 -16.667 127 -45.334 127 -86.001c0 -14.667 -6.33301 -30 -19 -46c-10.667 -13.333 -26 -29.333 -46 -48c-28.667 -26.667 -45 -42 -49 -46c-148.667 -151.333 -276 -306 -382 -464c35.333 -2.66699 72 -4 110 -4
c72.667 0 192.667 8.66699 360 26c13.333 1.33301 24 2 32 2c34 0 51 -10.667 51 -32z" />
    <glyph glyph-name="bracketleft" unicode="[" horiz-adv-x="468" 
d="M241 -114l-79.001 0.00390625c-34.667 0.666992 -60.5 1 -77.5 1s-30.167 9.66699 -39.5 29c-8 15.333 -12 32 -12 50c0 10 1.33301 18.333 4 25c-13.333 311.333 -20 546 -20 704c0 91.333 0 132 0 122c1.33301 55.333 6.5 94.333 15.5 117s25.833 34 50.5 34
c18 0 44.333 0.333008 79 1h79c118.667 0 191 -3.66699 217 -11c10.667 -2.66699 16 -14.334 16 -35.001c0 -16.667 -3 -33.334 -9 -50.001c-7.33301 -21.333 -18 -32 -32 -32c-10 0 -31.333 4 -64 12c-37.333 8.66699 -61 13.667 -71 15c-14.667 2 -30 3 -46 3
c-24.667 0 -58.667 -2.66699 -102 -8c-12.667 -148.667 -19 -288 -19 -418c0 -50.667 4.16699 -125.834 12.5 -225.501s12.5 -174.5 12.5 -224.5v-4c40 -4 71.333 -6 94 -6c18 0 35 1 51 3c8.66699 1.33301 31.334 6 68.001 14c32 7.33301 53.333 11 64 11
c14 0 24.667 -10.667 32 -32c6 -16 9 -32.333 9 -49c0 -20.667 -5.33301 -32.334 -16 -35.001c-26 -7.33301 -98.333 -11 -217 -11z" />
    <glyph glyph-name="backslash" unicode="\" horiz-adv-x="707" 
d="M691 39c0 -12.667 -10.667 -23.332 -32 -31.999c-17.333 -6.66699 -33.333 -10 -48 -10c-18 0 -33 8.66699 -45 26l-60 109c-97.333 168 -217 341 -359 519l-66 78c-34.667 42 -52 68 -52 78c0 15.333 9.66699 28 29 38c16 8.66699 32.667 13 50 13
c27.333 0 49.666 -10.333 66.999 -31c6 -7.33301 34 -47.333 84 -120l194 -288l156 -244c18.667 -25.333 44.334 -65 77.001 -119c3.33301 -6.66699 5 -12.334 5 -17.001z" />
    <glyph glyph-name="bracketright" unicode="]" horiz-adv-x="594" 
d="M521 707c0 -124 -6.66504 -362.665 -19.998 -715.998c2 -6.66699 3 -14.334 3 -23.001c0 -18 -3.66699 -35 -11 -51c-9.33301 -20 -22 -30 -38 -30h-78c-34.667 -0.666992 -60.667 -1 -78 -1c-121.333 0 -194.333 3.66699 -219 11c-10 2.66699 -15 14.667 -15 36
c0 17.333 2.66699 33.666 8 48.999c7.33301 20.667 18 31 32 31c11.333 0 32.666 -3.66699 63.999 -11c36.667 -8 59.334 -12.667 68.001 -14c16.667 -2 33.667 -3 51 -3c23.333 0 54.666 2 93.999 6v4c0 50 4 124 12 222s12 172 12 222c0 132 -6 273.333 -18 424
c-44 5.33301 -78 8 -102 8c-16 0 -31.667 -1 -47 -3c-10 -1.33301 -33.333 -6.33301 -70 -15c-32.667 -8 -54 -12 -64 -12c-14 0 -24.667 10.667 -32 32c-5.33301 15.333 -8 31.333 -8 48c0 22 5 34.333 15 37c24.667 7.33301 97 11 217 11h79
c35.333 -0.666992 61.666 -1 78.999 -1c24.667 0 41.5 -11.167 50.5 -33.5s14.167 -59.5 15.5 -111.5c0 8.66699 0 -30 0 -116z" />
    <glyph glyph-name="underscore" unicode="_" horiz-adv-x="813" 
d="M472 -123c-144.667 0 -261 2.33203 -349 6.99902c-54.667 2.66699 -82 31 -82 85c0 22 11 32.667 33 32h4c33.333 -0.666992 91.666 -5 174.999 -13c74.667 -7.33301 133.334 -10.666 176.001 -9.99902h19c36 0 98.333 5 187 15c50.667 6 78.667 9 84 9
c19.333 0 35.333 -8.5 48 -25.5s19 -35.5 19 -55.5c0 -21.333 -9.33301 -33.333 -28 -36c-4.66699 -0.666992 -29 -2 -73 -4c-65.333 -2.66699 -136.333 -4 -213 -4z" />
    <glyph glyph-name="a" unicode="a" horiz-adv-x="836" 
d="M803 99c0 -17.333 -9.16699 -33.332 -27.5 -47.999s-36.5 -22 -54.5 -22c-10 0 -18 3.66699 -24 11c-10.667 12.667 -21.667 32 -33 58l-26 63c-122.667 -30 -277 -62 -463 -96l-23 -50c-11.333 -21.333 -24 -32 -38 -32c-18.667 0 -36.334 11.167 -53.001 33.5
s-25 42.833 -25 61.5c0 10 8.66699 29 26 57l37 57c62 110.667 133.333 275.667 214 495c9.33301 24 22.333 60.333 39 109c10.667 34.667 36.334 52 77.001 52c19.333 0 33.333 -9 42 -27l48 -131c69.333 -182.667 143.333 -341.667 222 -477l36 -58
c17.333 -28.667 26 -47.334 26 -56.001zM584 287.001l-163 382.999c-26.667 -60.667 -58.667 -139 -96 -235l-92 -237c128.667 20.667 245.667 50.334 351 89.001z" />
    <glyph glyph-name="b" unicode="b" horiz-adv-x="803" 
d="M286 2c-65.333 0 -112.329 2.66406 -140.996 7.99707c-15.333 2.66699 -26 10.334 -32 23.001c-10 20 -17.667 171.667 -23 455c-2.66699 -0.666992 -5.33398 -1 -8.00098 -1c-14.667 0 -26.334 9.33301 -35.001 28c-6 14.667 -9 30.334 -9 47.001
c0 17.333 5.66699 35.333 17 54l36 45c49.333 60 97.666 104 144.999 132c55.333 32.667 118 49 188 49c79.333 0 144.666 -20.333 195.999 -61c54.667 -44.667 82 -105.667 82 -183c0 -79.333 -52 -150 -156 -212c49.333 -14 92.333 -36.333 129 -67
c46 -36.667 69 -77 69 -121c0 -67.333 -58.667 -120.666 -176 -159.999c-70 -24 -164 -36 -282 -36zM606.004 586.997c0 40 -23.668 72.6641 -71.001 97.9971c-40 21.333 -82 32 -126 32c-71.333 0 -143.666 -37.333 -216.999 -112c-1.33301 -39.333 -2 -78.666 -2 -117.999
c0 -32 0.333008 -64 1 -96c186 4.66699 306 34.334 360 89.001c36.667 36.667 55 72.334 55 107.001zM385.003 301.994c-69.333 0 -131.333 -20.333 -186 -61c4 -41.333 8.66699 -80 14 -116c72.667 -5.33301 135.334 -8 188.001 -8c104 0 171.333 9.66699 202 29
c28.667 17.333 43 34 43 50c0 32.667 -36.333 59.667 -109 81c-56.667 16.667 -107.334 25 -152.001 25z" />
    <glyph glyph-name="c" unicode="c" horiz-adv-x="786" 
d="M764 243c0 -9.33301 -2.33398 -16.667 -7.00098 -22c-12 -11.333 -35 -29.333 -69 -54c-149.333 -106.667 -284 -160 -404 -160c-79.333 0 -141.333 28 -186 84c-41.333 51.333 -62 117.333 -62 198c0 154.667 61 286.667 183 396c118 105.333 255.667 158 413 158
c19.333 0 34 -2 44 -6c12 -6 18 -19 18 -39v-31c0 -16 3.83301 -36.5 11.5 -61.5s11.5 -41.5 11.5 -49.5c0 -12.667 -11.333 -26.5 -34 -41.5s-41 -22.5 -55 -22.5c-10 0 -17.5 5.16699 -22.5 15.5s-9.83301 25.5 -14.5 45.5c-5.33301 25.333 -9 41 -11 47
c-152 -23.333 -266.667 -79.666 -344 -168.999c-69.333 -80 -104 -155.333 -104 -226c0 -54 21.333 -96.667 64 -128c38 -27.333 85.667 -41 143 -41c46 0 101.667 13.333 167 40c40.667 17.333 91.334 42.666 152.001 75.999c49.333 27.333 77 41 83 41
c15.333 0 23 -16.667 23 -50z" />
    <glyph glyph-name="d" unicode="d" horiz-adv-x="868" 
d="M116 3c-12.667 0 -21 6.00098 -25 18.001c-6.66699 18 -13.334 183.333 -20.001 496c-12 14.667 -18 33.334 -18 56.001c0 16.667 4.33301 31.167 13 43.5s25.334 30.833 50.001 55.5c50 48.667 104.667 87.667 164 117c66 32 131 48 195 48
c93.333 0 172.833 -33.333 238.5 -100s98.5 -146.667 98.5 -240c0 -122.667 -60.333 -227.334 -181 -314.001c-95.333 -68.667 -212.333 -117.334 -351 -146.001c-24 -3.33301 -59.667 -10 -107 -20c-32.667 -9.33301 -51.667 -14 -57 -14zM194 135.001
c122 11.333 225.668 39 311.001 83c116.667 60.667 175 143 175 247c0 68.667 -25.5 127 -76.5 175s-110.833 72 -179.5 72c-86.667 0 -170.334 -38 -251.001 -114c-2.66699 -44.667 -4 -88 -4 -130c0 -118 8.33301 -229 25 -333z" />
    <glyph glyph-name="e" unicode="e" horiz-adv-x="752" 
d="M170 366c2.66699 -82.667 9.99902 -162.666 21.999 -239.999h9c61.333 -0.666992 130.333 6.66602 207 21.999c30.667 6 98.667 21.667 204 47c13.333 3.33301 24 5 32 5c25.333 0 38 -11 38 -33c0 -14 -5.16699 -29.667 -15.5 -47s-21.833 -29.333 -34.5 -36
c-56 -28.667 -127 -52 -213 -70c-78.667 -16 -152.667 -24 -222 -24c-33.333 0 -53 0.666992 -59 2c-22.667 3.33301 -38.167 13.333 -46.5 30s-15.166 123.667 -20.499 321c-26.667 9.33301 -40 30.333 -40 63c0 28.667 12 48 36 58h1c-0.666992 12 -1.66699 50.333 -3 115
c-0.666992 47.333 -1 86 -1 116c0 22 0.333008 35.333 1 40c2.66699 13.333 10 24.333 22 33c9.33301 6.66699 26 13.334 50 20.001l122.5 40c41 13.333 85.833 20 134.5 20c60.667 0 103 -2.33301 127 -7c16 -3.33301 32.667 -14.833 50 -34.5s26 -37.5 26 -53.5
c0 -22.667 -20 -35.334 -60 -38.001c-90.667 -6 -152.667 -12 -186 -18c-48 -9.33301 -107.667 -29 -179 -59c-3.33301 -45.333 -5 -93 -5 -143c150.667 44 296.667 66 438 66c18 0 30.667 -0.333008 38 -1c15.333 -1.33301 33 -8.66602 53 -21.999
c22.667 -14.667 34 -29.334 34 -44.001c0 -18 -22 -29.333 -66 -34c-202 -20 -366.667 -51.333 -494 -94z" />
    <glyph glyph-name="f" unicode="f" horiz-adv-x="693" 
d="M163 366c1.33301 -38.667 6.33203 -90.335 14.999 -155.002c10.667 -74.667 17.334 -126 20.001 -154v-4c1.33301 -14.667 -9 -27 -31 -37c-18 -8 -35.333 -12 -52 -12c-20 0 -31.333 6.33301 -34 19c-6.66699 31.333 -12 137 -16 317c-26.667 7.33301 -40 29 -40 65
c0 32 12.333 51 37 57c-3.33301 94 -5 162.667 -5 206v53c2.66699 19.333 10.667 34 24 44c8.66699 6.66699 25.334 13.334 50.001 20.001l121.5 40c40.333 13.333 85.166 20 134.499 20c61.333 0 104 -2.33301 128 -7c16 -3.33301 32.667 -14.666 50 -33.999s26 -37 26 -53
c0 -23.333 -20.333 -36.333 -61 -39c-91.333 -6 -153.333 -12 -186 -18c-48 -9.33301 -107.667 -29 -179 -59c-2.66699 -48 -4 -94.667 -4 -140c137.333 42 270.333 63 399 63c17.333 0 29.333 -0.333008 36 -1c15.333 -2 32 -9.33301 50 -22
c20.667 -14.667 31 -29.334 31 -44.001c0 -5.33301 -1.33301 -10 -4 -14c-6 -10 -25 -16.667 -57 -20c-182.667 -19.333 -333.667 -49.666 -453 -90.999z" />
    <glyph glyph-name="g" unicode="g" horiz-adv-x="904" 
d="M294 0c-82.667 0 -146.999 28.3301 -192.999 84.9971c-42 52.667 -63 121.334 -63 206.001c0 153.333 61.333 283.666 184 390.999c118.667 104 255.667 156 411 156c30 0 48.667 -5 56 -15c4 -6.66699 6 -25.334 6 -56.001c0 -16.667 3.83301 -38 11.5 -64
s11.5 -43 11.5 -51c0 -13.333 -11 -27.5 -33 -42.5s-40 -22.5 -54 -22.5s-25.333 15 -34 45l-16 64c-134 -20.667 -239.333 -68 -316 -142c-36 -35.333 -66 -73.666 -90 -114.999c-28 -49.333 -42 -95.666 -42 -138.999c0 -50.667 17.667 -91.167 53 -121.5
s78.666 -45.5 129.999 -45.5c60 0 131.333 16.333 214 49s145.334 69.667 188.001 111c16.667 16 25 29 25 39c0 23.333 -28 35 -84 35c-90.667 0 -213.667 -18.333 -369 -55c-16.667 -4 -28.667 -6 -36 -6c-20 0 -30 9.66699 -30 29c0 16 8.16699 34.667 24.5 56
s32.166 35.333 47.499 42c30 12.667 84.667 23.334 164 32.001c66 7.33301 122 11 168 11c152.667 0 229 -32.333 229 -97c0 -51.333 -43.667 -112.666 -131 -183.999c-160 -130 -304 -195 -432 -195z" />
    <glyph glyph-name="h" unicode="h" horiz-adv-x="744" 
d="M679 94c0 -16.667 -9.66699 -30.0029 -29 -40.0029c-16 -8.66699 -33.333 -13 -52 -13c-21.333 0 -33.666 7.33301 -36.999 22c-4 19.333 -6.33301 48.333 -7 87c-0.666992 29.333 -1 59 -1 89c-3.33301 68.667 -6 134.667 -8 198
c-136.667 -18.667 -258.334 -48 -365.001 -88c3.33301 -69.333 9 -134 17 -194l2 -11c0 -3.33301 3 -19.666 9 -48.999c4 -20 6 -36.333 6 -49c0 -13.333 -10.667 -25 -32 -35c-18 -8.66699 -34.667 -13 -50 -13c-20 0 -31.667 6.66699 -35 20s-5.33301 31.333 -6 54l-2 55
l-22 284c-8 109.333 -12 204 -12 284v38c1.33301 20 12.333 36.667 33 50c18.667 10.667 38.667 16 60 16c28 0 42 -11 42 -33c0 -11.333 -0.666992 -25.666 -2 -42.999c-2.66699 -22.667 -4 -36.667 -4 -42c-4.66699 -64.667 -7 -132 -7 -202
c121.333 39.333 243 62.333 365 69c-1.33301 90.667 -2 138 -2 142v69c2.66699 29.333 10.667 49.333 24 60c19.333 15.333 44.666 23 75.999 23c25.333 0 38 -9.33301 38 -28c0 4 -3.33301 -25.667 -10 -89c-6 -57.333 -10 -116 -12 -176c16 -4 32 -12.333 48 -25
c18.667 -14 28 -28 28 -42c0 -21.333 -26 -32 -78 -32v-28c-0.666992 -82.667 3.33301 -161 12 -235c0.666992 -5.33301 3.33398 -20.666 8.00098 -45.999c3.33301 -20 5 -35.667 5 -47z" />
    <glyph glyph-name="i" unicode="i" horiz-adv-x="290" 
d="M223 69c0 -14 -10.333 -26.001 -31 -36.001c-17.333 -8 -33.666 -12 -48.999 -12c-22.667 0 -35.334 7 -38.001 21s-4 32 -4 54c-0.666992 17.333 -1 35 -1 53c-10 222.667 -15 408 -15 556c0 25.333 0.333008 43.333 1 54c2 20 13.333 36 34 48
c17.333 10 36.666 15 57.999 15c29.333 0 44 -9 44 -27c0 -17.333 -1.66699 -40 -5 -68c-5.33301 -37.333 -8.33301 -60 -9 -68c-7.33301 -81.333 -11 -159.333 -11 -234c0 -94 4.33301 -180 13 -258c0.666992 -5.33301 3.33398 -21.666 8.00098 -48.999
c3.33301 -20 5 -36.333 5 -49z" />
    <glyph glyph-name="j" unicode="j" horiz-adv-x="867" 
d="M807 615c0 -114.667 -16.332 -227.336 -48.999 -338.003c-22.667 -77.333 -65.5 -140.333 -128.5 -189s-134.833 -73 -215.5 -73c-85.333 0 -163 32.667 -233 98c-36.667 34.667 -66 79.334 -88 134.001c-20 50.667 -31.333 103.334 -34 158.001v9
c-2 36.667 18.333 55 61 55c24.667 0 39.667 -21 45 -63c11.333 -90 41 -156 89 -198c54 -47.333 114 -71 180 -71c55.333 0 104.333 14.667 147 44c45.333 30.667 73.666 72.334 84.999 125.001c8.66699 40 13 90.333 13 151c0 120.667 -10 204.667 -30 252
c-4.66699 10.667 -20 16 -46 16c-25.333 0 -60.333 -5.16699 -105 -15.5s-74 -15.5 -88 -15.5c-14.667 0 -22 9.66699 -22 29c0 50.667 16.667 81.667 50 93c55.333 18.667 130 28 224 28c26 0 46.667 -1 62 -3c38 -5.33301 61 -27 69 -65c9.33301 -45.333 14 -99 14 -161z
" />
    <glyph glyph-name="k" unicode="k" horiz-adv-x="729" 
d="M696 767c0 -10 -14.3311 -26.998 -42.998 -50.998s-64 -56 -106 -96c-64.667 -61.333 -99.334 -94.333 -104.001 -99l-193 -184c104.667 -80 221.334 -149.333 350.001 -208l46 -18c22.667 -10.667 34 -19.334 34 -26.001c0 -13.333 -14 -26 -42 -38
c-24.667 -10.667 -44.667 -16 -60 -16c-11.333 0 -84 23 -218 69c-76 26 -141.333 60.667 -196 104c1.33301 -10 4.66602 -31.667 9.99902 -65c4 -28 6 -49.333 6 -64c0 -16.667 -9.33301 -30.334 -28 -41.001c-16 -8.66699 -33.333 -13 -52 -13c-21.333 0 -33.5 7 -36.5 21
s-4.5 32.333 -4.5 55c-0.666992 18.667 -1 37 -1 55c-10.667 229.333 -16 416 -16 560c0 22 0.333008 37.667 1 47c2 20 13.333 36 34 48c17.333 10.667 37 16 59 16c28.667 0 43 -9.33301 43 -28c0 -16.667 -1.66699 -38 -5 -64
c-4.66699 -35.333 -7.33398 -56.333 -8.00098 -63c-7.33301 -84 -11 -166.667 -11 -248l1 -2l2 -1c130 122 251.333 230 364 324l36 31c15.333 12.667 28.5 20.667 39.5 24s23.5 5 37.5 5c40.667 0 61 -11.333 61 -34z" />
    <glyph glyph-name="l" unicode="l" horiz-adv-x="623" 
d="M158 16c-34 0 -54.666 0.669922 -61.999 2.00293c-24 3.33301 -39.833 13.666 -47.5 30.999s-14.5 120 -20.5 308c-5.33301 148.667 -8 261 -8 337c0 30.667 0.333008 49.334 1 56.001c1.33301 20 9.83301 36 25.5 48s33.5 18 53.5 18c25.333 0 38 -9 38 -27
c0 -13.333 -1 -31 -3 -53c-3.33301 -29.333 -5 -47 -5 -53c-4.66699 -64 -7 -126 -7 -186c0 -126.667 8.66699 -241.334 26 -344.001h11c59.333 -0.666992 120 4.66602 182 15.999c3.33301 0.666992 78.666 18.334 225.999 53.001c12.667 3.33301 23.334 5 32.001 5
c26 0 39 -11.333 39 -34c0 -14.667 -5.16699 -30.334 -15.5 -47.001s-21.833 -28.334 -34.5 -35.001c-51.333 -27.333 -121.333 -50.333 -210 -69c-82.667 -17.333 -156.334 -26 -221.001 -26z" />
    <glyph glyph-name="m" unicode="m" horiz-adv-x="1018" 
d="M978 105c0 -17.333 -8.83398 -35.3291 -26.501 -53.9961s-34.834 -28 -51.501 -28c-8 0 -14 3.33301 -18 10c-13.333 22.667 -39.666 105.667 -78.999 249c-22 80.667 -51.667 182 -89 304c-34 -111.333 -64.333 -216.333 -91 -315c-42.667 -158.667 -70 -248 -82 -268
c-6.66699 -12 -14.667 -18 -24 -18c-16.667 0 -32.334 12.333 -47.001 37c-13.333 22.667 -20 43 -20 61c0 5.33301 0.666992 11 2 17l-141 454c-55.333 -182.667 -105 -339.334 -149 -470.001c-5.33301 -19.333 -15 -46.333 -29 -81c-6.66699 -12 -14.667 -18 -24 -18
c-16 0 -31.333 12.667 -46 38c-14 22.667 -21 42.667 -21 60c0 9.33301 5.66699 26.333 17 51l24 53c22.667 55.333 46.334 121 71.001 197c44 134.667 79 261.667 105 381c7.33301 34.667 25.333 52 54 52c14.667 0 27 -16 37 -48l16 -69
c35.333 -135.333 84.333 -284 147 -446c62 175.333 114.667 365.666 158 570.999c7.33301 34.667 25 52 53 52c12.667 0 22.334 -8.66699 29.001 -26s13 -39.333 19 -66c9.33301 -44 14 -66.333 14 -67c54 -214.667 103 -379.334 147 -494.001
c10 -22.667 24 -57.334 42 -104.001c2 -5.33301 3 -10.333 3 -15z" />
    <glyph glyph-name="n" unicode="n" horiz-adv-x="827" 
d="M722 299c0 -47.333 1.00098 -90.333 3.00098 -129c0.666992 -7.33301 2.33398 -23.333 5.00098 -48c2.66699 -20 4 -36 4 -48c0 -17.333 -11 -30.333 -33 -39c-15.333 -6 -33.333 -9 -54 -9c-22 0 -32.667 7 -32 21l-442 500c-4 -63.333 -6 -123.666 -6 -180.999
c0 -93.333 4.66699 -179 14 -257c0.666992 -4 3 -17 7 -39c3.33301 -16.667 5 -30 5 -40c0 -17.333 -11 -31 -33 -41c-16.667 -7.33301 -35.334 -11 -56.001 -11c-16.667 0 -26.334 7.33301 -29.001 22c0 0.666992 -1.66699 36 -5 106c-10.667 218.667 -16 402.667 -16 552
c0 39.333 1.66699 63.666 5 72.999c6.66699 20.667 25 34.667 55 42c14 3.33301 26.333 5 37 5c16.667 0 29 -4.33301 37 -13l431 -501c2.66699 80.667 6.66699 169 12 265c2 60 7.66699 149.667 17 269c4.66699 39.333 33 59 85 59c22.667 0 34 -8.33301 34 -25
c0 -17.333 -2.66699 -40.333 -8 -69c-7.33301 -39.333 -11.333 -62.333 -12 -69c-16.667 -129.333 -25 -261 -25 -395z" />
    <glyph glyph-name="o" unicode="o" horiz-adv-x="1033" 
d="M969 467c0 -129.333 -50.999 -241.333 -152.999 -336c-99.333 -92 -214 -138 -344 -138c-114.667 0 -211.334 37.667 -290.001 113s-118 169.666 -118 282.999c0 129.333 50.667 241 152 335c99.333 92.667 214 139 344 139c114 0 210.667 -37.667 290 -113
s119 -169.666 119 -282.999zM822.001 421c0 90 -29.001 168 -87.001 234c-60 68.667 -134.333 103 -223 103c-88 0 -162.333 -34.667 -223 -104c-58 -66 -87 -143.667 -87 -233c0 -90 29 -167.667 87 -233c60.667 -68 135.334 -102 224.001 -102
c87.333 0 161.333 34.333 222 103c58 66 87 143.333 87 232z" />
    <glyph glyph-name="p" unicode="p" horiz-adv-x="720" 
d="M157 218c1.33301 -12 5.99902 -41 13.999 -87c6.66699 -40 10 -67 10 -81c0 -16 -10.667 -29 -32 -39c-18 -8.66699 -35.667 -13 -53 -13s-28 5.66699 -32 17c-8 22.667 -14.333 188 -19 496c-11.333 14.667 -17 33.334 -17 56.001c0 16 3.66699 30 11 42
c19.333 31.333 47 63.833 83 97.5s70.333 59.834 103 78.501c69.333 38.667 135.333 58 198 58c74.667 0 140.334 -23.333 197.001 -70c60 -50 90 -111.667 90 -185c0 -110.667 -67.667 -200.334 -203 -269.001c-96 -48.667 -212.667 -82.334 -350 -101.001zM583.999 558
c0 46.667 -25 85.3311 -75 115.998c-43.333 27.333 -90 41 -140 41c-72.667 0 -146.667 -37.667 -222 -113c-2 -40.667 -3 -81.667 -3 -123c0 -49.333 1.33301 -98.666 4 -147.999c195.333 6 321.333 40 378 102c38.667 42.667 58 84.334 58 125.001z" />
    <glyph glyph-name="q" unicode="q" horiz-adv-x="995" 
d="M958 470c0 -122 -46 -230.333 -138 -325l54 -24c26 -12.667 39 -24.334 39 -35.001s-5.83301 -20 -17.5 -28s-23.167 -12 -34.5 -12c-13.333 0 -51.333 12.667 -114 38c-85.333 -60 -180.333 -90 -285 -90c-116 0 -212.833 37.167 -290.5 111.5
s-116.5 169.5 -116.5 285.5c0 126.667 50.333 237.667 151 333c99.333 92.667 213 139 341 139c114 0 210.667 -36.667 290 -110c80.667 -75.333 121 -169.666 121 -282.999zM733 199c53.333 64 79.999 137 79.999 219c0 87.333 -28.667 165.333 -86 234
c-60.667 71.333 -134 107 -220 107c-89.333 0 -164.666 -34.333 -225.999 -103c-59.333 -66 -89 -144.333 -89 -235c0 -90 29 -167.667 87 -233c60 -68 134.333 -102 223 -102c51.333 0 100.333 13.667 147 41c-63.333 30.667 -117.333 64.334 -162 101.001
c-64.667 53.333 -97 104.333 -97 153c0 14 3.66699 30 11 48c8.66699 22 18.667 33 30 33c6.66699 0 14.667 -5 24 -15c76 -77.333 119.667 -121.333 131 -132c44.667 -42.667 93.667 -81.334 147 -116.001z" />
    <glyph glyph-name="r" unicode="r" horiz-adv-x="759" 
d="M604 105c0 -12.667 -5.66699 -23.665 -17 -32.998s-23.333 -14 -36 -14c-42.667 0 -104.334 12.333 -185.001 37c-74.667 22.667 -134.334 45.667 -179.001 69c0.666992 -8.66699 4 -28.334 10 -59.001c5.33301 -26 8 -44.667 8 -56c0 -16 -9.33301 -28.667 -28 -38
c-15.333 -7.33301 -31.666 -11 -48.999 -11c-23.333 0 -36.666 6.66699 -39.999 20c-5.33301 22 -9 59 -11 111l-2 115c-3.33301 84 -5.66602 169.667 -6.99902 257c-14 3.33301 -26.167 12.5 -36.5 27.5s-15.5 30.167 -15.5 45.5s8.66699 33.333 26 54
c115.333 140.667 240.333 211 375 211c77.333 0 145.666 -23.333 204.999 -70c64 -50.667 96 -113.667 96 -189c0 -90.667 -49.333 -168 -148 -232c-72 -46.667 -162 -82 -270 -106c50 -28.667 99.667 -53 149 -73c38 -16 70.667 -27.667 98 -35l35 -8
c14.667 -4.66699 22 -12.334 22 -23.001zM601 562.002c0 46.667 -24 85.332 -72 115.999c-42.667 27.333 -88.667 41 -138 41c-72 0 -145.667 -37.667 -221 -113c-2 -40.667 -3 -81.667 -3 -123c0 -49.333 1.33301 -98.666 4 -147.999c191.333 5.33301 315.333 39 372 101
c38.667 42.667 58 84.667 58 126z" />
    <glyph glyph-name="s" unicode="s" horiz-adv-x="871" 
d="M269 1c-44.667 0 -77.9971 7 -99.9971 21c-34 21.333 -63.167 52.666 -87.5 93.999s-36.5 81 -36.5 119c0 30.667 8.33301 46 25 46c16 0 31.333 -9.66699 46 -29c5.33301 -10.667 15 -26.667 29 -48c49.333 -58 123 -87 221 -87c62 0 119 12.667 171 38
c59.333 29.333 99.666 70.333 120.999 123c6.66699 18 10 33.333 10 46c0 20 -10.333 33.333 -31 40c-58 18.667 -140.333 31.334 -247 38.001c-84.667 4.66699 -169 9 -253 13c-44.667 3.33301 -70.334 20 -77.001 50c-3.33301 12 -5 24.667 -5 38
c0 8.66699 1.33301 15.667 4 21c15.333 40.667 43 83.667 83 129c34.667 39.333 72.667 74 114 104c98 71.333 215.333 107 352 107c18.667 0 33.5 -2.33301 44.5 -7s16.833 -17 17.5 -37c0 -13.333 3 -33.333 9 -60s9 -44.334 9 -53.001c0 -14 -11.333 -28.333 -34 -43
s-41.667 -22 -57 -22c-10 0 -19.333 11 -28 33c0 0.666992 -4.33301 16.334 -13 47.001c-8.66699 0.666992 -17.334 1 -26.001 1c-128 0 -228.333 -47 -301 -141c-12.667 -16 -19 -27 -19 -33c0 -5.33301 8.66699 -9 26 -11c12.667 -0.666992 30 -0.666992 52 0
c30 0.666992 41.667 1 35 1c70.667 0 140 -3.66699 208 -11l131 -12c54 -5.33301 96.667 -12.333 128 -21c22.667 -6 34 -31.667 34 -77c0 -16.667 -1.66699 -30.667 -5 -42c-32.667 -108 -104.667 -198.333 -216 -271c-106 -69.333 -217.333 -104 -334 -104z" />
    <glyph glyph-name="t" unicode="t" horiz-adv-x="690" 
d="M390 699c-5.33301 -74 -7.99902 -144.334 -7.99902 -211.001c0 -122 8 -237.333 24 -346c0 -2.66699 2.66699 -17.667 8 -45c4 -18 6 -33 6 -45c0 -13.333 -10.667 -25 -32 -35c-18 -8.66699 -35 -13 -51 -13c-20 0 -31.333 6.66699 -34 20
c-0.666992 3.33301 -2.66699 33.666 -6 90.999c-8 136.667 -13.333 324 -16 562c-6.66699 -2 -37.667 -13 -93 -33c-46 -16 -74 -24 -84 -24c-19.333 0 -35 9.66699 -47 29c-10 16 -15 34.333 -15 55c0 36 14.333 60 43 72c111.333 46.667 229.666 70 354.999 70
c58.667 0 99 -2.33301 121 -7c46 -10 77.667 -32.333 95 -67c4 -8.66699 6 -16 6 -22c0 -6.66699 -2 -13 -6 -19c-8 -11.333 -30.333 -17.666 -67 -18.999c-44.667 -1.33301 -111 -5.66602 -199 -12.999z" />
    <glyph glyph-name="u" unicode="u" horiz-adv-x="775" 
d="M708 75c0 -16.667 -9.99902 -30.335 -29.999 -41.002c-16 -8 -33.333 -12 -52 -12c-21.333 0 -33.333 7 -36 21c-2 9.33301 -4 53 -6 131c-51.333 -29.333 -100.666 -52.333 -147.999 -69c-154.667 -55.333 -254 -83 -298 -83c-30.667 0 -47.334 7 -50.001 21
c-3.33301 12 -5 28.333 -5 49v50c-12.667 261.333 -19 424.333 -19 489c0 62 1.33301 104.667 4 128c2 20.667 13 37 33 49c17.333 10 37 15 59 15c29.333 0 44 -9.33301 44 -28c0 -14 -1.66699 -31.333 -5 -52c-4 -31.333 -6.33301 -49 -7 -53
c-8.66699 -86.667 -13 -171.334 -13 -254.001c0 -159.333 5.33301 -246.666 16 -261.999c3.33301 -4.66699 9 -7 17 -7c28 0 88.667 19 182 57c76.667 30.667 138 58 184 82c-7.33301 147.333 -11 255 -11 323c0 63.333 1.33301 106.666 4 129.999c2 20 12.667 36 32 48
c17.333 10.667 36.666 16 57.999 16c30.667 0 46 -9.33301 46 -28c0 -17.333 -2 -40 -6 -68c-4.66699 -37.333 -7.33398 -60 -8.00098 -68c-8 -85.333 -11.667 -163.666 -11 -234.999v-29c0.666992 -62 5.33398 -134 14.001 -216c0 -3.33301 2.33301 -20.666 7 -51.999
c3.33301 -21.333 5 -38.666 5 -51.999z" />
    <glyph glyph-name="v" unicode="v" horiz-adv-x="689" 
d="M344 16c-43.333 0 -69 10.333 -77 31c-15.333 37.333 -55 161.666 -119 372.999c-66.667 220 -100 340 -100 360c0 32.667 23.667 49 71 49c18.667 0 31 -9 37 -27c4.66699 -14 9 -32.333 13 -55c5.33301 -34.667 8.33301 -53.667 9 -57
c36 -176.667 84 -338.667 144 -486l90 255c20.667 62.667 55.334 154.667 104.001 276c13.333 28 34.666 42 63.999 42c43.333 0 65 -9.66699 65 -29c0 -7.33301 -8.33301 -27.666 -25 -60.999l-33 -65c-64.667 -140.667 -115 -296.667 -151 -468
c-3.33301 -24.667 -10 -60.667 -20 -108c-6.66699 -20 -30.667 -30 -72 -30z" />
    <glyph glyph-name="w" unicode="w" horiz-adv-x="1037" 
d="M717 24c-12.667 0 -22.333 9.33203 -29 27.999c-8 22.667 -21.333 67.667 -40 135c-16 56.667 -31 101.667 -45 135c-30.667 70.667 -58.334 138.667 -83.001 204c-52 -146 -81.667 -230.333 -89 -253c-32 -95.333 -56.333 -181 -73 -257
c-7.33301 -34 -25.333 -51 -54 -51c-12.667 0 -22 9 -28 27l-33 131c-56.667 221.333 -106.667 388.666 -150 501.999c-9.33301 21.333 -22.333 53.333 -39 96c-2 5.33301 -3 10.333 -3 15c0 17.333 9 35.5 27 54.5s35.333 28.5 52 28.5c7.33301 0 13 -3.33301 17 -10
c12.667 -22 27.334 -62.333 44.001 -121l34 -129c21.333 -79.333 51.333 -180.666 90 -303.999c27.333 93.333 51.666 168 72.999 224l68 178c24 66 50.667 99 80 99c12 0 22.333 -10 31 -30c2 -5.33301 6.66699 -21 14 -47c4 -14 24 -70 60 -168
c26 -70 51.667 -144.333 77 -223c60 197.333 111.667 359.333 155 486c4 15.333 11.667 37 23 65c6.66699 12 14.334 18 23.001 18c16 0 32 -12.667 48 -38c14 -23.333 21 -43.666 21 -60.999c0 -8.66699 -6 -26 -18 -52l-24 -54c-23.333 -55.333 -47 -120.333 -71 -195
c-43.333 -132 -78.333 -259 -105 -381c-7.33301 -34.667 -25 -52 -53 -52z" />
    <glyph glyph-name="x" unicode="x" horiz-adv-x="689" 
d="M414 415c50 -63.333 97.665 -118.999 142.998 -166.999c17.333 -15.333 42 -40 74 -74c6 -8 9 -17.667 9 -29c0 -16.667 -6 -35.334 -18 -56.001c-13.333 -22.667 -27.666 -34 -42.999 -34c-5.33301 0 -10.333 2 -15 6c-16 14 -33.667 33.667 -53 59l-47 63l-107 137
c-41.333 -71.333 -78 -139.666 -110 -204.999c-8.66699 -20.667 -22.667 -51 -42 -91c-8.66699 -15.333 -23.667 -23 -45 -23c-16 0 -32 4 -48 12c-18.667 10 -28 22.333 -28 37c0 10 67 131.667 201 365l-117 151c-45.333 59.333 -82.666 111 -111.999 155
c-10 15.333 -15 31.333 -15 48c0 17.333 5 34.666 15 51.999c12 20 26 30 42 30c8 0 15.333 -4.33301 22 -13l64 -102c53.333 -83.333 105.333 -158.333 156 -225l89 151c20 35.333 52 86.666 96 153.999c14 19.333 33.333 29 58 29c17.333 0 35 -5 53 -15
c20 -12 30 -26.333 30 -43c0 -5.33301 -1.66699 -11 -5 -17c-10.667 -13.333 -26 -33.666 -46 -60.999c-65.333 -86.667 -132.333 -184.667 -201 -294z" />
    <glyph glyph-name="y" unicode="y" horiz-adv-x="783" 
d="M255 3c-16 0 -32 3.99902 -48 11.999c-18.667 10 -28 22.333 -28 37c0 4 49.667 95.333 149 274l-138 181c-32.667 41.333 -79.667 105 -141 191c-11.333 17.333 -17 33.333 -17 48c0 14 6.5 31.5 19.5 52.5s25.833 31.5 38.5 31.5c7.33301 0 15 -5 23 -15l44 -72
c71.333 -114.667 146.666 -221.667 225.999 -321l165 281c15.333 26.667 39.333 65 72 115c14 19.333 33.333 29 58 29c17.333 0 35 -5 53 -15c20 -12 30 -26.333 30 -43c0 -9.33301 -15 -33.666 -45 -72.999l-58 -76c-121.333 -169.333 -222.666 -336 -303.999 -500
l-36 -85c-17.333 -34.667 -38.333 -52 -63 -52z" />
    <glyph glyph-name="z" unicode="z" horiz-adv-x="770" 
d="M752 124c0 -13.333 -6.83301 -26.666 -20.5 -39.999s-27.5 -22 -41.5 -26c-106 -30 -237.667 -45 -395 -45c-80 0 -143 3.66699 -189 11c-18 2.66699 -34.167 11.334 -48.5 26.001s-21.5 30.667 -21.5 48c0 10 3.33301 20.333 10 31
c0.666992 0.666992 23.667 30.334 69 89.001l139 179l244 301c-16.667 0.666992 -33 1 -49 1c-106 0 -203 -11 -291 -33c-10 -2.66699 -17.667 -4 -23 -4c-16.667 0 -31 7.66699 -43 23s-18 31.666 -18 48.999c0 10 2 19.667 6 29c6 15.333 20 26.666 42 33.999
c80 26.667 170 40 270 40c67.333 0 126 -5 176 -15c84.667 -16.667 127 -45.334 127 -86.001c0 -14.667 -6.33301 -30 -19 -46c-10.667 -13.333 -26 -29.333 -46 -48c-28.667 -26.667 -45 -42 -49 -46c-148.667 -151.333 -276 -306 -382 -464c35.333 -2.66699 72 -4 110 -4
c72.667 0 192.667 8.66699 360 26c13.333 1.33301 24 2 32 2c34 0 51 -10.667 51 -32z" />
    <glyph glyph-name="braceleft" unicode="{" horiz-adv-x="782" 
d="M749 706c0 -14 -8.66699 -31.333 -26 -52s-33 -31 -47 -31c-4 0 -7.33301 1.33301 -10 4c-26.667 24 -69 58 -127 102c-30 18 -76.333 39.333 -139 64c-14.667 4.66699 -35 12.667 -61 24c-6.66699 3.33301 -10 9 -10 17c0 16 8.33301 32.667 25 50s33 26 49 26
c14 0 70 -28.333 168 -85c91.333 -53.333 149 -89 173 -107c3.33301 -2.66699 5 -6.66699 5 -12zM647 457c0 -18.667 -4.33301 -35.999 -13 -51.999c-10.667 -18.667 -24.334 -28 -41.001 -28c-2.66699 0 -25.667 2.66699 -69 8c-70 8.66699 -122.667 13 -158 13
c-46.667 0 -117 -6 -211 -18c-60.667 -7.33301 -93.667 -11 -99 -11c-21.333 0 -32 13 -32 39c0 20.667 6.33301 38.667 19 54s29.334 24 50.001 26l171 6c95.333 3.33301 168.333 5 219 5c78 0 124.833 -1.33301 140.5 -4s23.5 -15.334 23.5 -38.001zM438 -83.999
c-13.333 0 -26.001 10.335 -38.001 31.002c-10 18 -15 34.333 -15 49c0 14 4.66699 25 14 33c23.333 21.333 75.666 62.333 156.999 123c89.333 67.333 139.333 101 150 101c12.667 0 25.334 -12 38.001 -36c12 -21.333 18 -39 18 -53c0 -9.33301 -3 -16 -9 -20
c-2 -0.666992 -15.667 -7 -41 -19c-47.333 -22.667 -81.666 -41.334 -102.999 -56.001c-24 -16.667 -51.667 -40.667 -83 -72c-42 -42.667 -67.667 -68.334 -77 -77.001c-4 -2.66699 -7.66699 -4 -11 -4z" />
    <glyph glyph-name="bar" unicode="|" horiz-adv-x="260" 
d="M198 -34c0 -19.333 -10.333 -35.333 -31 -48c-17.333 -10.667 -36.666 -16 -57.999 -16c-16 0 -25.5 9 -28.5 27s-4.83301 40.333 -5.5 67v66c-10.667 291.333 -16 532 -16 722c0 33.333 0.666992 56.666 2 69.999c2 23.333 11.833 43 29.5 59s38.167 24 61.5 24
c30 0 45 -12.333 45 -37c0 -22.667 -2 -51.667 -6 -87c-4.66699 -48 -7.33398 -77.333 -8.00098 -88c-7.33301 -106 -11 -207 -11 -303c0 -117.333 4 -225 12 -323c1.33301 -8.66699 4.33301 -30.667 9 -66c3.33301 -27.333 5 -49.666 5 -66.999z" />
    <glyph glyph-name="braceright" unicode="}" horiz-adv-x="762" 
d="M85 571c-12.667 0 -25.332 12.001 -37.999 36.001c-11.333 21.333 -17 39.333 -17 54c0 9.33301 3 16 9 20c2 1.33301 15 7.66602 39 18.999s58.667 30 104 56c24 17.333 51.667 41.666 83 72.999c46 45.333 72.333 71 79 77c3.33301 2.66699 6.66602 4 9.99902 4
c13.333 0 25.666 -10.667 36.999 -32c10.667 -18.667 16 -35 16 -49c0 -13.333 -4.66699 -24.333 -14 -33c-22.667 -21.333 -75 -62.666 -157 -123.999c-89.333 -67.333 -139.666 -101 -150.999 -101zM736.002 455.001c22 0 33.001 -12.999 33.001 -38.999
c0 -20.667 -6.33301 -38.5 -19 -53.5s-29.334 -23.5 -50.001 -25.5c-6.66699 -0.666992 -40.334 -2.33398 -101.001 -5.00098c-92 -4.66699 -174.667 -7 -248 -7c-104 0 -164.5 1.5 -181.5 4.5s-25.5 15.5 -25.5 37.5c0 18.667 4.33301 36 13 52
c10.667 19.333 24.667 29 42 29c3.33301 0 26 -2.66699 68 -8c70.667 -9.33301 123.334 -14 158.001 -14c48 0 118.333 5.66699 211 17c62 8 95.333 12 100 12zM463.003 -7.99805c0 -16 -8.50098 -32.832 -25.501 -50.499s-33.5 -26.5 -49.5 -26.5c-14 0 -70 28.333 -168 85
c-91.333 53.333 -148.666 89 -171.999 107c-4 3.33301 -6 7.66602 -6 12.999c0 14 9 31.167 27 51.5s33.667 30.5 47 30.5c4 0 7.66699 -1.33301 11 -4c26 -24.667 67.667 -58.667 125 -102c32.667 -20 81.667 -42.667 147 -68c12.667 -4 31 -11 55 -21
c6 -3.33301 9 -8.33301 9 -15z" />
    <glyph glyph-name="asciitilde" unicode="~" horiz-adv-x="710" 
d="M474 353c-30 0 -73.332 12.667 -129.999 38s-94.667 38 -114 38c-22.667 0 -46.334 -12.5 -71.001 -37.5s-40 -37.5 -46 -37.5c-12.667 0 -23 11.333 -31 34c-6 17.333 -9 34.333 -9 51c0 17.333 3.33301 30.333 10 39c33.333 44.667 70 67 110 67
c25.333 0 66 -12.333 122 -37s98.667 -37 128 -37c27.333 0 56 14.833 86 44.5s45.667 44.5 47 44.5c11.333 0 21.666 -12.333 30.999 -37c7.33301 -20.667 11 -38.334 11 -53.001c0 -23.333 -17.667 -48.666 -53 -75.999s-65.666 -41 -90.999 -41z" />
    <glyph glyph-name="dieresis" unicode="&#xa8;" 
 />
    <glyph glyph-name="copyright" unicode="&#xa9;" horiz-adv-x="986" 
d="M931 498c0 -84 -24.167 -167.5 -72.5 -250.5s-110.5 -150.167 -186.5 -201.5c-80 -54.667 -162.333 -82 -247 -82c-103.333 0 -191 36.5 -263 109.5s-108 161.167 -108 264.5c0 84 24 167.667 72 251s109.667 151 185 203c80.667 54.667 163 82 247 82
c103.333 0 191.333 -37 264 -111s109 -162.333 109 -265zM799 433c0 84.667 -24.001 159.333 -72.001 224c-52 71.333 -119 107 -201 107c-51.333 0 -104.666 -16.333 -159.999 -49c-125.333 -74 -188 -182 -188 -324c0 -84.667 23.667 -159.334 71 -224.001
c52.667 -71.333 119.667 -107 201 -107c52 0 105.333 16.667 160 50c126 74.667 189 182.334 189 323.001zM407.999 187.999c-40.667 0 -73.998 10 -99.998 30c-29.333 22.667 -44 53.667 -44 93c0 53.333 31.667 125.333 95 216c22 31.333 48 57.333 78 78
c34.667 23.333 68.667 35 102 35s63.666 -13 90.999 -39c40 -38 60 -65.667 60 -83c0 -11.333 -7.33301 -21 -22 -29s-28 -12 -40 -12c-10.667 0 -25.334 9 -44.001 27s-39 27 -61 27c-29.333 0 -62.5 -17.833 -99.5 -53.5s-55.5 -67.834 -55.5 -96.501
c0 -33.333 13.333 -58.666 40 -75.999c22.667 -14.667 51.667 -22 87 -22c37.333 0 71.5 13.333 102.5 40s59.833 40 86.5 40c8.66699 0 13 -3 13 -9c0 -2 -0.666992 -5 -2 -9c-18 -43.333 -58.667 -81 -122 -113c-58.667 -29.333 -113.667 -44 -165 -44z" />
    <glyph glyph-name="registered" unicode="&#xae;" horiz-adv-x="990" 
d="M935 498c0 -84 -23.999 -167.5 -71.999 -250.5s-110 -150.167 -186 -201.5c-80.667 -54.667 -163.334 -82 -248.001 -82c-102.667 0 -190.167 36.5 -262.5 109.5s-108.5 161.167 -108.5 264.5c0 84 24 167.667 72 251s109.667 151 185 203c80.667 54.667 163 82 247 82
c103.333 0 191.333 -36.833 264 -110.5s109 -162.167 109 -265.5zM803.001 434c0 84.667 -24 159.002 -72 223.002c-52 70.667 -119 106 -201 106c-51.333 0 -104.333 -16 -159 -48c-60 -34.667 -106.5 -80.334 -139.5 -137.001s-49.5 -119.334 -49.5 -188.001
c0 -84.667 24 -159 72 -223c52 -71.333 118.667 -107 200 -107c52 0 105.333 16.667 160 50c126 75.333 189 183.333 189 324zM483.001 313.002l146.998 -78c21.333 -11.333 32 -22.333 32 -33c0 -9.33301 -7.66699 -14 -23 -14c-9.33301 0 -19.666 2 -30.999 6l-223 82
c0.666992 -4 3.33398 -19 8.00098 -45c3.33301 -18.667 5 -33.667 5 -45c0 -8.66699 -5.16699 -15.5 -15.5 -20.5s-20.166 -7.5 -29.499 -7.5c-14.667 0 -23 4.33301 -25 13c-6.66699 33.333 -10.667 85.333 -12 156c-0.666992 54 -1 108 -1 162
c-15.333 -21.333 -26 -32 -32 -32c-8.66699 0 -16.5 5 -23.5 15s-10.5 19.667 -10.5 29c0 12 12.667 31.667 38 59c60.667 67.333 125.667 101 195 101c55.333 0 103 -12.667 143 -38c46.667 -30 70 -71 70 -123c0 -53.333 -23 -96.333 -69 -129
c-32.667 -22 -80.334 -41.333 -143.001 -58zM625.999 489.002c0 28.667 -16 53 -48 73c-28 18 -57.333 27 -88 27c-36 0 -73 -13.333 -111 -40c-2 -33.333 -3 -66.333 -3 -99c0 -27.333 0.666992 -54.333 2 -81l12 -7c105.333 4.66699 173.333 24 204 58
c21.333 22.667 32 45.667 32 69z" />
    <glyph glyph-name="Ograve" unicode="&#xd2;" 
 />
    <glyph glyph-name="Oacute" unicode="&#xd3;" 
 />
    <glyph glyph-name="Ocircumflex" unicode="&#xd4;" 
 />
    <glyph glyph-name="Otilde" unicode="&#xd5;" 
 />
    <glyph glyph-name="quoteleft" unicode="&#x2018;" horiz-adv-x="401" 
d="M333 639c0 -13.333 -5.83301 -23.834 -17.5 -31.501s-24.5 -11.5 -38.5 -11.5c-16 0 -29.333 8.66699 -40 26c-14 23.333 -38.333 69.333 -73 138c-39.333 77.333 -59 121.333 -59 132c0 14 8.33301 25.667 25 35c14 8 28.667 12 44 12c25.333 0 42.333 -9.66699 51 -29
c18.667 -50.667 49.667 -125.667 93 -225c10 -19.333 15 -34.666 15 -45.999z" />
    <glyph glyph-name="quoteright" unicode="&#x2019;" horiz-adv-x="323" 
d="M140 596c-14 0 -26.834 3.83398 -38.501 11.501s-17.5 18.167 -17.5 31.5c0 10.667 5 26 15 46c13.333 26.667 29 64 47 112c21.333 54.667 36.5 92 45.5 112s25.833 30 50.5 30c15.333 0 30.833 -4.33301 46.5 -13s23.5 -20.334 23.5 -35.001
c0 -9.33301 -19.667 -53 -59 -131c-35.333 -70 -59.666 -116 -72.999 -138c-10.667 -17.333 -24 -26 -40 -26z" />
    <glyph glyph-name="quotedblleft" unicode="&#x201c;" horiz-adv-x="553" 
d="M490 643c0 -13.333 -5.83301 -23.834 -17.5 -31.501s-24.167 -11.5 -37.5 -11.5c-16 0 -29.667 9 -41 27c-14 23.333 -38.667 69.333 -74 138c-39.333 78 -59 122 -59 132c0 14 8.33301 25.667 25 35c14 8 29 12 45 12c25.333 0 42.333 -10 51 -30
c18.667 -50.667 49.667 -125.667 93 -225c10 -19.333 15 -34.666 15 -45.999zM307 581.999c0 -12.667 -5.83398 -22.834 -17.501 -30.501s-24.5 -11.5 -38.5 -11.5c-16 0 -29.333 8.66699 -40 26c-13.333 22 -37.666 68 -72.999 138c-39.333 78 -59 122 -59 132
c0 14 8.33301 25.667 25 35c14 8 28.667 12 44 12c25.333 0 42.333 -10 51 -30c18.667 -50.667 49.667 -125.667 93 -225c10 -19.333 15 -34.666 15 -45.999z" />
    <glyph glyph-name="quotedblright" unicode="&#x201d;" horiz-adv-x="509" 
d="M305 540c-13.333 0 -25.999 3.83301 -37.999 11.5s-18 17.834 -18 30.501c0 10 5.33301 25.333 16 46c13.333 26.667 29 64 47 112c20 54 34.667 91.333 44 112s26.666 31 51.999 31c15.333 0 30.833 -4.33301 46.5 -13s23.5 -20.334 23.5 -35.001
c0 -10 -19.667 -53.667 -59 -131c-35.333 -68.667 -60 -114.667 -74 -138c-10.667 -17.333 -24 -26 -40 -26zM122.001 600c-14 0 -26.667 3.83301 -38 11.5s-17 18.167 -17 31.5c0 10.667 5 26 15 46c13.333 26.667 29 64 47 112c20.667 54.667 35.667 92.167 45 112.5
s26.666 30.5 51.999 30.5c15.333 0 30 -4 44 -12c16.667 -9.33301 25 -21.333 25 -36c0 -9.33301 -19.667 -53 -59 -131c-35.333 -69.333 -59.666 -115.333 -72.999 -138c-11.333 -18 -25 -27 -41 -27z" />
    <glyph glyph-name="ellipsis" unicode="&#x2026;" horiz-adv-x="800" 
d="M718 181c0 -8.66699 -4.16602 -31.668 -12.499 -69.001s-14.5 -61.666 -18.5 -72.999c-5.33301 -16 -24 -24 -56 -24c-28 0 -42 10 -42 30c0 28.667 2.66699 72 8 130c1.33301 17.333 24.666 26 69.999 26c34 0 51 -6.66699 51 -20zM474.001 179.999
c0 -8.66699 -4.16602 -31.668 -12.499 -69.001s-14.5 -61.666 -18.5 -72.999c-5.33301 -16 -24 -24 -56 -24c-28 0 -42 10 -42 30c0 28.667 2.66699 72 8 130c1.33301 17.333 24.666 26 69.999 26c34 0 51 -6.66699 51 -20zM230.002 178.998
c0 -8.66699 -4.16602 -31.668 -12.499 -69.001s-14.5 -61.666 -18.5 -72.999c-5.33301 -16 -24 -24 -56 -24c-28 0 -42 10 -42 30c0 28.667 2.66699 72 8 130c1.33301 17.333 24.666 26 69.999 26c34 0 51 -6.66699 51 -20z" />
    <glyph glyph-name="trademark" unicode="&#x2122;" horiz-adv-x="991" 
d="M928 486c0 -10 -5.50293 -20.167 -16.5029 -30.5s-21.5 -15.5 -31.5 -15.5c-5.33301 0 -9.33301 2.33301 -12 7c-9.33301 15.333 -23.666 58 -42.999 128c-10 34.667 -26.667 88 -50 160l-52 -179c-30 -96.667 -54 -145 -72 -145c-3.33301 0 -6.66602 1.33301 -9.99902 4
c-24.667 16.667 -64.667 111.334 -120 284.001c-22 -64.667 -41.667 -116.667 -59 -156c-10.667 -30.667 -28.667 -73.334 -54 -128.001c-4.66699 -6.66699 -9.66699 -10 -15 -10c-10 0 -19.833 7.16699 -29.5 21.5s-14.5 27.166 -14.5 38.499c0 2.66699 8 20.334 24 53.001
c55.333 110.667 93.666 212.667 114.999 306c4 19.333 14.667 29 32 29c8.66699 0 15.334 -5.66699 20.001 -17c9.33301 -36.667 27.333 -91 54 -163c20.667 -44.667 38.667 -86.334 54 -125.001c38 98.667 71.333 208.334 100 329.001c4 18.667 14.667 28 32 28
c10 0 18.667 -12 26 -36l12 -49c16.667 -64 31.334 -116.333 44.001 -157l65 -168c0.666992 -3.33301 1 -6.33301 1 -9zM248.997 807c-4 -47.333 -6.00098 -92.335 -6.00098 -135.002c0 -57.333 5 -120.666 15 -189.999c5.33301 -36 8 -55 8 -57c0 -10 -6 -18.333 -18 -25
c-9.33301 -5.33301 -19.666 -8 -30.999 -8c-10.667 0 -17 4 -19 12c-7.33301 26.667 -12 156 -14 388l-91 -28c-21.333 0 -32 13.667 -32 41c0 20.667 8.33301 34.667 25 42c52 24.667 108.333 37 169 37c24 0 44.667 -1.33301 62 -4c10 -2 21.667 -8.16699 35 -18.5
s20 -20.166 20 -29.499c0 -10 -17.333 -16.667 -52 -20c-24 -1.33301 -47.667 -3 -71 -5z" />
    <glyph glyph-name=".null" horiz-adv-x="0" 
 />
    <glyph glyph-name="nonmarkingreturn" 
 />
    <glyph glyph-name="glyph109" 
 />
  </font>
</defs>
</svg>
