<?xml version="1.0"?>
<svg xmlns="http://www.w3.org/2000/svg" viewBox="0 0 512 512" width="512" height="512"><g id="Solid"><path d="M152,248a8,8,0,0,1,8-8h56a24.028,24.028,0,0,0,24-24V104a24.028,24.028,0,0,0-24-24H56a24.028,24.028,0,0,0-24,24V216a24.028,24.028,0,0,0,24,24H96a8.006,8.006,0,0,1,4.8,1.6L152,280ZM64,224a8,8,0,0,1-6.656-12.438l9.573-14.36A32.045,32.045,0,0,1,48,168v-8a8,8,0,0,1,4.715-7.3A31.806,31.806,0,0,1,48,136v-8a8,8,0,0,1,8-8h60.687L128.4,108.284a41.935,41.935,0,0,1,70.527,20.272l20.043,8.016a8,8,0,0,1,0,14.856l-21.9,8.763A86.2,86.2,0,0,1,113.941,224Z"/><path d="M336,64h40V56a24.028,24.028,0,0,0-24-24H308.944l-5.789,11.578A8,8,0,0,1,296,48H216a8,8,0,0,1-7.155-4.422L203.056,32H160a24.028,24.028,0,0,0-24,24v8h80a40.045,40.045,0,0,1,40,40V216a40.045,40.045,0,0,1-40,40H168v40a8,8,0,0,1-12.8,6.4L136,288V456a24.028,24.028,0,0,0,24,24H337.175a82.155,82.155,0,0,1-3.069-78.58l-20.091-20.091L219,386.959l-22.23,21.847a8,8,0,0,1-12.943-2.512l-29.22-67.1A8,8,0,0,1,161.771,328l30.936-.653,95.245-93.595a8,8,0,0,1,12.919,2.459l30.4,68.458a36.029,36.029,0,0,1,18.67,9.956L376,340.687V270.4l-11.35,8.107A8,8,0,0,1,352,272V240H336a40.045,40.045,0,0,1-40-40V104A40.045,40.045,0,0,1,336,64ZM248,432h56v16H248Zm-80,0h56v16H168Z"/><path d="M158.059,112a25.765,25.765,0,0,0-18.343,7.6l-14.059,14.058A8,8,0,0,1,120,136H64a16.019,16.019,0,0,0,16,16,8,8,0,0,1,0,16H64a16.019,16.019,0,0,0,16,16,8,8,0,0,1,6.656,12.438L78.948,208h34.993A70.138,70.138,0,0,0,184,137.941,25.972,25.972,0,0,0,158.059,112ZM168,144H152V128h16Z"/><path d="M314.115,305.461l-23.181-52.2-89.277,87.729a8,8,0,0,1-5.438,2.292l-22.18.468,19.812,45.493,16.072-15.795a8,8,0,0,1,5.134-2.28l83.825-4.967-.255-.256a36.279,36.279,0,0,1,15.488-60.48Zm-73.467,44.471L229.434,338.52l24.376-23.955,11.214,11.413ZM277.212,314,266,302.589l12.189-11.978L289.4,302.023Z"/><path d="M456,80H336a24.028,24.028,0,0,0-24,24v96a24.028,24.028,0,0,0,24,24h24a8,8,0,0,1,8,8v24.454l43.35-30.964A8,8,0,0,1,416,224h40a24.028,24.028,0,0,0,24-24V104A24.028,24.028,0,0,0,456,80Zm8,104a24.028,24.028,0,0,1-24,24H336a8,8,0,0,1-8-8V136a8,8,0,0,1,8-8h32V104a8,8,0,0,1,8-8h16a24.028,24.028,0,0,1,24,24v8h24a24.028,24.028,0,0,1,24,24Z"/><rect x="344" y="144" width="24" height="48"/><path d="M338.627,325.941a20.284,20.284,0,0,0-28.686,28.686l39.716,39.716a8,8,0,0,1,1.2,9.773,66,66,0,0,0,1.671,70.26l3.75,5.624H440V382.45a56.206,56.206,0,0,0-12.271-34.983L392,302.807v53.879l21.657,21.657-11.314,11.314Z"/><path d="M440,144H408a8,8,0,0,1-8-8V120a8.009,8.009,0,0,0-8-8h-8v80h56a8.009,8.009,0,0,0,8-8V152A8.009,8.009,0,0,0,440,144Z"/></g></svg>
