<?xml version="1.0" encoding="iso-8859-1"?>
<!-- Generator: Adobe Illustrator 19.0.0, SVG Export Plug-In . SVG Version: 6.00 Build 0)  -->
<svg version="1.1" id="Capa_1" xmlns="http://www.w3.org/2000/svg" xmlns:xlink="http://www.w3.org/1999/xlink" x="0px" y="0px"
	 viewBox="0 0 204.802 204.802" style="enable-background:new 0 0 204.802 204.802;" xml:space="preserve">
<rect x="92.16" y="139.948" style="fill:#FFFFFF;" width="20.48" height="30.72"/>
<path style="fill:#602F75;" d="M112.64,174.081H92.16c-1.884,0-3.413-1.529-3.413-3.413v-30.72c0-1.884,1.529-3.413,3.413-3.413
	h20.48c1.884,0,3.413,1.529,3.413,3.413v30.72C116.053,172.552,114.524,174.081,112.64,174.081z M95.573,167.254h13.653v-23.893
	H95.573V167.254z"/>
<path style="fill:#00E7FF;" d="M191.543,146.774H13.257c-5.437,0-9.844-4.407-9.844-9.844V33.738c0-5.437,4.407-9.844,9.844-9.844
	h178.285c5.437,0,9.844,4.407,9.844,9.844V136.93C201.387,142.368,196.98,146.774,191.543,146.774z"/>
<path style="fill:#602F75;" d="M191.543,150.188H13.257C5.948,150.188,0,144.24,0,136.93V33.738c0-7.31,5.946-13.257,13.257-13.257
	h178.287c7.31,0,13.257,5.948,13.257,13.257V136.93C204.8,144.24,198.854,150.188,191.543,150.188z M13.257,27.308
	c-3.546,0-6.431,2.884-6.431,6.431V136.93c0,3.546,2.884,6.431,6.431,6.431h178.287c3.545,0,6.431-2.884,6.431-6.431V33.738
	c0-3.546-2.884-6.431-6.431-6.431L13.257,27.308L13.257,27.308z"/>
<rect x="20.48" y="37.548" style="fill:#EA3457;" width="61.44" height="30.72"/>
<path style="fill:#602F75;" d="M81.92,71.681H20.48c-1.884,0-3.413-1.529-3.413-3.413v-30.72c0-1.884,1.529-3.413,3.413-3.413h61.44
	c1.884,0,3.413,1.529,3.413,3.413v30.72C85.333,70.152,83.804,71.681,81.92,71.681z M23.893,64.854h54.613V40.961H23.893V64.854z"/>
<rect x="20.48" y="68.268" style="fill:#FFE600;" width="61.44" height="20.48"/>
<path style="fill:#602F75;" d="M81.92,92.161H20.48c-1.884,0-3.413-1.529-3.413-3.413v-20.48c0-1.884,1.529-3.413,3.413-3.413h61.44
	c1.884,0,3.413,1.529,3.413,3.413v20.48C85.333,90.632,83.804,92.161,81.92,92.161z M23.893,85.334h54.613V71.681H23.893V85.334z"/>
<rect x="81.92" y="68.268" style="fill:#EA3457;" width="51.2" height="20.48"/>
<path style="fill:#602F75;" d="M133.12,92.161h-51.2c-1.884,0-3.413-1.529-3.413-3.413v-20.48c0-1.884,1.529-3.413,3.413-3.413h51.2
	c1.884,0,3.413,1.529,3.413,3.413v20.48C136.533,90.632,135.004,92.161,133.12,92.161z M85.333,85.334h44.373V71.681H85.333V85.334z
	"/>
<rect x="133.12" y="68.268" style="fill:#FFFFFF;" width="51.2" height="20.48"/>
<path style="fill:#602F75;" d="M184.32,92.161h-51.2c-1.884,0-3.413-1.529-3.413-3.413v-20.48c0-1.884,1.529-3.413,3.413-3.413h51.2
	c1.884,0,3.413,1.529,3.413,3.413v20.48C187.733,90.632,186.204,92.161,184.32,92.161z M136.533,85.334h44.373V71.681h-44.373
	V85.334z"/>
<rect x="20.48" y="88.748" style="fill:#FFFFFF;" width="61.44" height="20.48"/>
<path style="fill:#602F75;" d="M81.92,112.641H20.48c-1.884,0-3.413-1.529-3.413-3.413v-20.48c0-1.884,1.529-3.413,3.413-3.413
	h61.44c1.884,0,3.413,1.529,3.413,3.413v20.48C85.333,111.112,83.804,112.641,81.92,112.641z M23.893,105.814h54.613V92.161H23.893
	V105.814z"/>
<rect x="81.92" y="88.748" style="fill:#FFFFFF;" width="51.2" height="20.48"/>
<path style="fill:#602F75;" d="M133.12,112.641h-51.2c-1.884,0-3.413-1.529-3.413-3.413v-20.48c0-1.884,1.529-3.413,3.413-3.413
	h51.2c1.884,0,3.413,1.529,3.413,3.413v20.48C136.533,111.112,135.004,112.641,133.12,112.641z M85.333,105.814h44.373V92.161
	H85.333V105.814z"/>
<rect x="133.12" y="88.748" style="fill:#FFE600;" width="51.2" height="20.48"/>
<path style="fill:#602F75;" d="M184.32,112.641h-51.2c-1.884,0-3.413-1.529-3.413-3.413v-20.48c0-1.884,1.529-3.413,3.413-3.413
	h51.2c1.884,0,3.413,1.529,3.413,3.413v20.48C187.733,111.112,186.204,112.641,184.32,112.641z M136.533,105.814h44.373V92.161
	h-44.373V105.814z"/>
<rect x="20.48" y="109.228" style="fill:#EA3457;" width="61.44" height="20.48"/>
<path style="fill:#602F75;" d="M81.92,133.121H20.48c-1.884,0-3.413-1.529-3.413-3.413v-20.48c0-1.884,1.529-3.413,3.413-3.413
	h61.44c1.884,0,3.413,1.529,3.413,3.413v20.48C85.333,131.592,83.804,133.121,81.92,133.121z M23.893,126.294h54.613v-13.653H23.893
	V126.294z"/>
<rect x="81.92" y="109.228" style="fill:#FFFFFF;" width="51.2" height="20.48"/>
<path style="fill:#602F75;" d="M133.12,133.121h-51.2c-1.884,0-3.413-1.529-3.413-3.413v-20.48c0-1.884,1.529-3.413,3.413-3.413
	h51.2c1.884,0,3.413,1.529,3.413,3.413v20.48C136.533,131.592,135.004,133.121,133.12,133.121z M85.333,126.294h44.373v-13.653
	H85.333V126.294z"/>
<rect x="133.12" y="109.228" style="fill:#EA3457;" width="51.2" height="20.48"/>
<path style="fill:#602F75;" d="M184.32,133.121h-51.2c-1.884,0-3.413-1.529-3.413-3.413v-20.48c0-1.884,1.529-3.413,3.413-3.413
	h51.2c1.884,0,3.413,1.529,3.413,3.413v20.48C187.733,131.592,186.204,133.121,184.32,133.121z M136.533,126.294h44.373v-13.653
	h-44.373V126.294z"/>
<rect x="81.92" y="37.548" style="fill:#FFE600;" width="51.2" height="30.72"/>
<path style="fill:#602F75;" d="M133.12,71.681h-51.2c-1.884,0-3.413-1.529-3.413-3.413v-30.72c0-1.884,1.529-3.413,3.413-3.413h51.2
	c1.884,0,3.413,1.529,3.413,3.413v30.72C136.533,70.152,135.004,71.681,133.12,71.681z M85.333,64.854h44.373V40.961H85.333V64.854z
	"/>
<rect x="133.12" y="37.548" style="fill:#FFFFFF;" width="51.2" height="30.72"/>
<path style="fill:#602F75;" d="M184.32,71.681h-51.2c-1.884,0-3.413-1.529-3.413-3.413v-30.72c0-1.884,1.529-3.413,3.413-3.413h51.2
	c1.884,0,3.413,1.529,3.413,3.413v30.72C187.733,70.152,186.204,71.681,184.32,71.681z M136.533,64.854h44.373V40.961h-44.373
	V64.854z"/>
<rect x="75.093" y="170.668" style="fill:#FFFFFF;" width="54.613" height="10.24"/>
<path style="fill:#602F75;" d="M129.707,184.321H75.093c-1.884,0-3.413-1.529-3.413-3.413v-10.24c0-1.884,1.529-3.413,3.413-3.413
	h54.613c1.884,0,3.413,1.529,3.413,3.413v10.24C133.12,182.792,131.591,184.321,129.707,184.321z M78.507,177.494h47.787v-3.413
	H78.507V177.494z"/>
<g>
</g>
<g>
</g>
<g>
</g>
<g>
</g>
<g>
</g>
<g>
</g>
<g>
</g>
<g>
</g>
<g>
</g>
<g>
</g>
<g>
</g>
<g>
</g>
<g>
</g>
<g>
</g>
<g>
</g>
</svg>
