<svg height="464pt" viewBox="0 -8 464.8694 464" width="464pt" xmlns="http://www.w3.org/2000/svg"><path d="m282.335938 341.5c.929687 4.316406-1.816407 8.574219-6.136719 9.503906l-33.0625 7.136719c-.554688.117187-1.121094.175781-1.6875.175781-3.769531 0-7.03125-2.628906-7.824219-6.3125l-12.570312-58.3125-.445313.09375c-27.148437 5.855469-53.898437-11.40625-59.753906-38.550781s11.40625-53.898437 38.550781-59.75l39.867188-8.601563 96.726562-63.824218v-74.625h-128v96c0 17.675781-14.328125 32-32 32h-48v24c0 2.953125-1.625 5.664062-4.226562 7.054687-2.601563 1.394531-5.757813 1.242188-8.214844-.398437l-3.558594-2.398438v179.742188h224v-87.199219l-65.464844-10.398437zm21.664062-277.066406h16v16h-16zm-32 0h16v16h-16zm-32 0h16v16h-16zm0 0"/><path d="m236.296875 203.898438-33.511719 7.199218c-18.507812 3.992188-30.277344 22.230469-26.289062 40.738282 3.988281 18.507812 22.226562 30.277343 40.734375 26.285156l28.210937-6.078125 5.300782-1.152344-7.199219-33.503906zm0 0"/><path d="m112 168.433594c0-4.417969 3.582031-8 8-8h56c8.835938 0 16-7.164063 16-16v-96c0-8.835938-7.164062-16-16-16h-160c-8.835938 0-16 7.164062-16 16v96c0 8.835937 7.164062 16 16 16h56c1.578125.003906 3.125.472656 4.441406 1.34375l35.558594 23.714844zm56-64h-56v-16h56zm-96-48h96v16h-96zm-48 0h32v16h-32zm0 32h72v16h-72zm0 48v-16h104v16zm0 0"/><path d="m112 424.433594c0 13.257812 10.746094 24 24 24h176c13.253906 0 24-10.742188 24-24v-24h-224zm104-8h16v16h-16zm0 0"/><path d="m203.550781 32.433594h132.449219v-8c0-13.253906-10.746094-24-24-24h-176c-10.132812.042968-19.148438 6.445312-22.527344 16h62.527344c11.378906.035156 21.878906 6.132812 27.550781 16zm0 0"/><path d="m236.695312 290.316406 17.425782-3.757812 10.886718 50.496094-17.421874 3.757812zm0 0"/><path d="m251.40625 198.050781 7.753906 35.984375 7.761719 35.976563 144.316406 23.078125-37.839843-175.535156zm0 0"/><path d="m423.253906 190.457031 24.808594-5.347656 3.367188 15.640625-24.804688 5.347656zm0 0"/><path d="m408.386719 133.53125 23.019531-13.617188 8.140625 13.761719-23.015625 13.621094zm0 0"/><path d="m436.535156 264.105469 1.75-15.902344 26.585938 2.921875-1.75 15.90625zm0 0"/></svg>