<svg xmlns="http://www.w3.org/2000/svg" height="700pt" version="1.1" viewBox="-75 0 700 700" width="700pt">
<g id="surface1">
<path d="M 325 519.824219 L 325 455.175781 L 292.675781 487.5 Z M 325 519.824219 " style=" stroke:none;fill-rule:nonzero;fill:rgb(0%,0%,0%);fill-opacity:1;" />
<path d="M 225 455.175781 L 225 519.824219 L 257.324219 487.5 Z M 225 455.175781 " style=" stroke:none;fill-rule:nonzero;fill:rgb(0%,0%,0%);fill-opacity:1;" />
<path d="M 482.324219 437.5 L 417.675781 437.5 L 450 469.824219 Z M 482.324219 437.5 " style=" stroke:none;fill-rule:nonzero;fill:rgb(0%,0%,0%);fill-opacity:1;" />
<path d="M 242.675781 537.5 L 307.324219 537.5 L 275 505.175781 Z M 242.675781 537.5 " style=" stroke:none;fill-rule:nonzero;fill:rgb(0%,0%,0%);fill-opacity:1;" />
<path d="M 417.675781 537.5 L 482.324219 537.5 L 450 505.175781 Z M 417.675781 537.5 " style=" stroke:none;fill-rule:nonzero;fill:rgb(0%,0%,0%);fill-opacity:1;" />
<path d="M 500 519.824219 L 500 455.175781 L 467.675781 487.5 Z M 500 519.824219 " style=" stroke:none;fill-rule:nonzero;fill:rgb(0%,0%,0%);fill-opacity:1;" />
<path d="M 400 455.175781 L 400 519.824219 L 432.324219 487.5 Z M 400 455.175781 " style=" stroke:none;fill-rule:nonzero;fill:rgb(0%,0%,0%);fill-opacity:1;" />
<path d="M 132.324219 437.5 L 67.675781 437.5 L 100 469.824219 Z M 132.324219 437.5 " style=" stroke:none;fill-rule:nonzero;fill:rgb(0%,0%,0%);fill-opacity:1;" />
<path d="M 50 455.175781 L 50 519.824219 L 82.324219 487.5 Z M 50 455.175781 " style=" stroke:none;fill-rule:nonzero;fill:rgb(0%,0%,0%);fill-opacity:1;" />
<path d="M 307.324219 437.5 L 242.675781 437.5 L 275 469.824219 Z M 307.324219 437.5 " style=" stroke:none;fill-rule:nonzero;fill:rgb(0%,0%,0%);fill-opacity:1;" />
<path d="M 67.675781 537.5 L 132.324219 537.5 L 100 505.175781 Z M 67.675781 537.5 " style=" stroke:none;fill-rule:nonzero;fill:rgb(0%,0%,0%);fill-opacity:1;" />
<path d="M 150 519.824219 L 150 455.175781 L 117.675781 487.5 Z M 150 519.824219 " style=" stroke:none;fill-rule:nonzero;fill:rgb(0%,0%,0%);fill-opacity:1;" />
<path d="M 525 0 L 25 0 C 11.191406 0 0 11.191406 0 25 L 0 675 C 0 688.808594 11.191406 700 25 700 L 525 700 C 538.808594 700 550 688.808594 550 675 L 550 25 C 550 11.191406 538.808594 0 525 0 Z M 175 662.5 L 25 662.5 L 25 637.5 L 175 637.5 Z M 175 612.5 L 25 612.5 L 25 587.5 L 175 587.5 Z M 175 550 C 175 556.90625 169.40625 562.5 162.5 562.5 L 37.5 562.5 C 30.59375 562.5 25 556.90625 25 550 L 25 425 C 25 418.09375 30.59375 412.5 37.5 412.5 L 162.5 412.5 C 169.40625 412.5 175 418.09375 175 425 Z M 350 662.5 L 200 662.5 L 200 637.5 L 350 637.5 Z M 350 612.5 L 200 612.5 L 200 587.5 L 350 587.5 Z M 350 550 C 350 556.90625 344.40625 562.5 337.5 562.5 L 212.5 562.5 C 205.59375 562.5 200 556.90625 200 550 L 200 425 C 200 418.09375 205.59375 412.5 212.5 412.5 L 337.5 412.5 C 344.40625 412.5 350 418.09375 350 425 Z M 525 662.5 L 375 662.5 L 375 637.5 L 525 637.5 Z M 525 612.5 L 375 612.5 L 375 587.5 L 525 587.5 Z M 525 550 C 525 556.90625 519.40625 562.5 512.5 562.5 L 387.5 562.5 C 380.59375 562.5 375 556.90625 375 550 L 375 425 C 375 418.09375 380.59375 412.5 387.5 412.5 L 512.5 412.5 C 519.40625 412.5 525 418.09375 525 425 Z M 525 375 C 525 381.90625 519.40625 387.5 512.5 387.5 L 37.5 387.5 C 30.59375 387.5 25 381.90625 25 375 L 25 200 C 25 193.09375 30.59375 187.5 37.5 187.5 L 512.5 187.5 C 519.40625 187.5 525 193.09375 525 200 Z M 525 150 C 525 156.90625 519.40625 162.5 512.5 162.5 L 37.5 162.5 C 30.59375 162.5 25 156.90625 25 150 L 25 50 C 25 43.09375 30.59375 37.5 37.5 37.5 L 512.5 37.5 C 519.40625 37.5 525 43.09375 525 50 Z M 525 150 " style=" stroke:none;fill-rule:nonzero;fill:rgb(0%,0%,0%);fill-opacity:1;" />
<path d="M 500 357.074219 L 500 217.925781 L 311.164062 287.5 Z M 500 357.074219 " style=" stroke:none;fill-rule:nonzero;fill:rgb(0%,0%,0%);fill-opacity:1;" />
<path d="M 107.585938 362.5 L 442.414062 362.5 L 275 300.824219 Z M 107.585938 362.5 " style=" stroke:none;fill-rule:nonzero;fill:rgb(0%,0%,0%);fill-opacity:1;" />
<path d="M 50 137.5 L 500 137.5 L 500 62.5 L 50 62.5 Z M 375 87.5 L 450 87.5 L 450 112.5 L 375 112.5 Z M 275 87.5 L 350 87.5 L 350 112.5 L 275 112.5 Z M 175 87.5 L 250 87.5 L 250 112.5 L 175 112.5 Z M 75 87.5 L 150 87.5 L 150 112.5 L 75 112.5 Z M 75 87.5 " style=" stroke:none;fill-rule:nonzero;fill:rgb(0%,0%,0%);fill-opacity:1;" />
<path d="M 50 217.925781 L 50 357.074219 L 238.835938 287.5 Z M 50 217.925781 " style=" stroke:none;fill-rule:nonzero;fill:rgb(0%,0%,0%);fill-opacity:1;" />
<path d="M 442.414062 212.5 L 107.585938 212.5 L 275 274.175781 Z M 442.414062 212.5 " style=" stroke:none;fill-rule:nonzero;fill:rgb(0%,0%,0%);fill-opacity:1;" />
</g>
</svg>